<svg xmlns="http://www.w3.org/2000/svg" xmlns:xlink="http://www.w3.org/1999/xlink" viewBox="0 0 361 275.24"><defs><style>.cls-1,.cls-20,.cls-21,.cls-25,.cls-26,.cls-32,.cls-4,.cls-6,.cls-65,.cls-67,.cls-73,.cls-74{fill:none;}.cls-2{isolation:isolate;}.cls-3{fill:#ffece5;}.cls-4{stroke:#41485d;}.cls-18,.cls-20,.cls-25,.cls-26,.cls-32,.cls-4,.cls-6,.cls-65,.cls-67,.cls-82{stroke-miterlimit:10;}.cls-25,.cls-4{stroke-width:0.2px;}.cls-25,.cls-26,.cls-4{stroke-dasharray:1.86;}.cls-5{fill:#52586b;}.cls-20,.cls-21,.cls-6{stroke:#fff;}.cls-6{stroke-width:0.4px;}.cls-7{fill:#c69046;}.cls-8{fill:#ae7d38;}.cls-9{fill:#e1a55f;}.cls-10{fill:#e1d3ca;}.cls-11{opacity:0.49;}.cls-12{fill:#fdfdfd;}.cls-13{fill:#ede9ed;}.cls-14{fill:#a3bd73;}.cls-15{fill:#e35155;}.cls-16{fill:#ffc155;}.cls-17{fill:#faf5f7;}.cls-18{font-size:5.64px;stroke-width:0.09px;}.cls-18,.cls-82{fill:#6c6c6c;stroke:#6c6c6c;font-family:Gaegu-Light, Gaegu Light;font-weight:300;}.cls-19{fill:#ff5d5f;}.cls-20,.cls-21{stroke-width:0.94px;}.cls-21,.cls-73,.cls-74{stroke-linecap:round;stroke-linejoin:round;}.cls-22{fill:#3a3b44;}.cls-23{fill:#f08a4f;}.cls-24{fill:#fcfbfc;}.cls-25,.cls-26{stroke:#52586b;}.cls-26{stroke-width:0.16px;}.cls-27{fill:#ffc558;}.cls-28{fill:#a9c6de;}.cls-29{fill:#c4c058;}.cls-30{fill:#f75356;}.cls-31{fill:#ec9e58;}.cls-32{stroke:#e5cbd5;stroke-width:1.04px;}.cls-33{fill:#ff383f;}.cls-34{opacity:0.4;mix-blend-mode:luminosity;}.cls-35{clip-path:url(#clip-path);}.cls-36{fill:#814718;}.cls-37{fill:#553418;}.cls-38{fill:#ffceb0;}.cls-39{fill:#e9a983;}.cls-40{fill:#db675e;}.cls-41,.cls-49,.cls-64,.cls-71,.cls-72{fill:#fff;}.cls-42{fill:#efebee;}.cls-43{clip-path:url(#clip-path-2);}.cls-44{opacity:0.5;}.cls-45{fill:#b8b9c3;}.cls-46{fill:#918f9f;}.cls-47{fill:#e3dce1;}.cls-48{fill:#4a4f5f;}.cls-49{font-size:10.6px;font-family:Poppins-SemiBold, Poppins SemiBold;font-weight:600;}.cls-50{fill:#8d8484;}.cls-51{fill:#385d80;}.cls-52{fill:#c2b2a7;}.cls-53{fill:#3f160b;}.cls-54{fill:#e69e79;}.cls-55{fill:#ff8765;}.cls-56{fill:#005b7e;}.cls-57{fill:#e69e8d;}.cls-58{fill:#007094;}.cls-59{fill:#307094;}.cls-60{fill:#999292;}.cls-61{fill:#a7a7a7;}.cls-62{fill:#d9d9d9;}.cls-63{fill:#7a7171;}.cls-64{font-size:11.78px;}.cls-64,.cls-71{font-family:Gaegu-Regular, Gaegu Regular;}.cls-65{stroke:#000;}.cls-65,.cls-67{stroke-width:1.08px;}.cls-66{fill:#d08158;}.cls-67{stroke:#d08158;}.cls-68{fill:#5d6e7f;}.cls-69{fill:#98b0ae;}.cls-70{fill:#969696;}.cls-71{font-size:9.66px;}.cls-72{font-size:10.32px;font-family:Gaegu-Bold, Gaegu Bold;font-weight:700;}.cls-73,.cls-74{stroke:#e3ddd8;}.cls-73{stroke-width:1px;}.cls-74{stroke-width:0.81px;}.cls-75{fill:#e0dfe1;}.cls-76{clip-path:url(#clip-path-3);}.cls-77{fill:#ebeef1;}.cls-78{fill:#797b8e;}.cls-79{fill:#aaa;}.cls-80{fill:#858585;}.cls-81{fill:#e2ffff;opacity:0.42;}.cls-82{font-size:6.5px;stroke-width:0.26px;letter-spacing:-0.03em;}</style><clipPath id="clip-path"><rect class="cls-1" x="180.05" y="32.25" width="63.56" height="52" transform="translate(424.21 114.49) rotate(179.45)"/></clipPath><clipPath id="clip-path-2"><circle class="cls-1" cx="250.7" cy="118.86" r="16.81"/></clipPath><clipPath id="clip-path-3"><circle class="cls-1" cx="92.76" cy="85.82" r="14.75"/></clipPath></defs><g class="cls-2"><g id="Layer_2" data-name="Layer 2"><g id="OBJECTS"><path class="cls-3" d="M105.46,255.22H43c-29.54,0-1.61,20,54.78,20,89.7,0,148.52-1.87,125.15-25.24Z"/><path class="cls-4" d="M274.26,257.22c85,11.08,95.07-59.22,81.82-88.33-11.23-24.69-42.23-44.52-62.92-39.43"/><rect class="cls-5" x="326.84" y="245.72" width="8.93" height="8.17" rx="4.09"/><path class="cls-6" d="M330.22,248.67a1.06,1.06,0,1,1,2.11,0"/><path class="cls-6" d="M329.9,248.71h2.75a.48.48,0,0,1,.48.4l.35,1.83a.49.49,0,0,1-.48.58h-3.44a.5.5,0,0,1-.49-.58l.35-1.83A.48.48,0,0,1,329.9,248.71Z"/><path class="cls-7" d="M28.37,218l15.35-4.79,32.17-.31-1,33.41A3.77,3.77,0,0,1,73.57,249l-7,6.14-36.09-.47a1.13,1.13,0,0,1-1.22-.93Z"/><path class="cls-8" d="M75.89,212.85l-1,33.41A3.77,3.77,0,0,1,73.57,249l-7,6.14L66,217.7Z"/><polygon class="cls-9" points="75.89 212.85 43.72 213.16 28.36 217.95 65.94 217.74 75.89 212.85"/><polygon class="cls-8" points="55.08 213.05 43.75 217.86 43.24 254.77 48.58 254.88 49.44 218.06 59.89 213 55.08 213.05"/><path d="M45.9,254.39c-.08-4.15.13-8.33.21-12.49.12-6.12.26-12.24.37-18.37,0-1.71.1-3.43.06-5.15,0-.1-.17-.1-.17,0,.09,4.16-.12,8.34-.2,12.49q-.2,9.18-.37,18.37c0,1.71-.1,3.44-.06,5.15,0,.11.17.11.16,0Z"/><path d="M48.37,216.94c1-.49,2-.9,3-1.33l4.35-1.91c.42-.18.85-.36,1.26-.57.1,0,0-.19-.08-.14-1,.49-2,.89-3,1.33l-4.36,1.9c-.42.19-.85.36-1.26.57-.1.05,0,.19.08.15Z"/><polygon class="cls-10" points="52.22 219.93 52.45 223.83 63.22 223.74 63.39 219.69 52.22 219.93"/><path d="M53.58,222.35a.92.92,0,0,1,.17-.74c.51-.49.5.17.56.46s0,.52.32.53.39-.28.52-.45.46-.45.74-.15c0,0,0,.1.09.15a.35.35,0,0,0,.2.13.39.39,0,0,0,.26,0c.2-.11.26-.26.51-.29a1.43,1.43,0,0,1,.69.19,1.68,1.68,0,0,0,.54.11c1,0,2-.05,3-.08a.09.09,0,0,0,0-.17l-1.75.05a4.4,4.4,0,0,1-1.88-.13c-.3-.14-.59-.27-.89-.06,0,0-.1.1-.16.14-.24.14-.34,0-.47-.12a.51.51,0,0,0-.26-.2.72.72,0,0,0-.68.28c-.07.09-.18.33-.26.38-.32.17-.3-.15-.34-.31a2.57,2.57,0,0,0-.15-.69c-.13-.22-.36-.18-.54,0a1.16,1.16,0,0,0-.36,1c0,.1.18.1.16,0Z"/><path d="M50,218c4.72-.12,9.44,0,14.17-.07.16,0,.16-.26,0-.25-4.73.11-9.45,0-14.17.06-.16,0-.16.26,0,.26Z"/><path d="M65.7,218.29a.78.78,0,0,1,.1.36.86.86,0,0,1-.06.39c0,.06,0,.14.09.15a.12.12,0,0,0,.15-.08,1.13,1.13,0,0,0-.07-1,.12.12,0,1,0-.21.13Z"/><path d="M66,220.34c.2,9.72.23,19.45.34,29.18,0,1.44,0,2.88,0,4.32,0,.16.26.16.25,0-.19-9.73-.22-19.46-.33-29.18,0-1.44,0-2.88-.06-4.32a.13.13,0,1,0-.25,0Z"/><path d="M66.53,217.58a2.84,2.84,0,0,0,1-.38l2-1c1.52-.76,3-1.54,4.55-2.32.41-.21.81-.44,1.23-.62.15-.06,0-.28-.13-.22-1,.43-1.94,1-2.9,1.48-1.48.76-3,1.52-4.46,2.24a4.73,4.73,0,0,1-1.25.55c-.16,0-.16.26,0,.25Z"/><path d="M75.79,214.36c-.35,3.43-.22,7-.32,10.4q-.23,8.1-.46,16.2c0,1.31,0,2.65-.13,4,0,.16.23.16.25,0,.34-3.43.22-7,.32-10.4q.22-8.1.46-16.2c0-1.31,0-2.65.13-4,0-.16-.24-.16-.25,0Z"/><path d="M31.4,218.33l16.21-.4c.16,0,.17-.26,0-.25l-16.21.4a.13.13,0,0,0,0,.25Z"/><path d="M46.07,213.24c9.68-.23,19.37,0,29.06-.21.16,0,.16-.26,0-.25-9.69.23-19.38,0-29.06.21-.16,0-.16.26,0,.25Z"/><path d="M32.12,254.75c10.9-.26,21.81.35,32.7.09a.13.13,0,1,0,0-.25c-10.89.26-21.8-.35-32.7-.1-.16,0-.16.26,0,.26Z"/><g class="cls-11"><rect class="cls-12" x="104.95" y="39.79" width="39.35" height="28.04" rx="1.42"/><path class="cls-13" d="M105,41.21a1.43,1.43,0,0,1,1.42-1.42h36.52a1.43,1.43,0,0,1,1.42,1.42S105,41.3,105,41.21Z"/><path d="M105,61.14V44.21c0-.88,0-1.77,0-2.65.09-2.11,1.92-1.72,3.43-1.72,3.11,0,6.22,0,9.33,0h10.58a.06.06,0,0,0,0-.11c-6.55,0-13.1,0-19.65-.05-1,0-2.84-.39-3.53.65a4.38,4.38,0,0,0-.27,2.31V61.14a.06.06,0,0,0,.11,0Z"/><path d="M105.4,46.25V41.5a1,1,0,0,1,0-.25l.44,0h11.9c.07,0,.07-.12,0-.12l-12.39,0a.06.06,0,0,0-.06.06v5a.06.06,0,0,0,.11,0Z"/><path d="M105.6,66.84c-.38-.63-.14-1.77-.14-2.55V53c0-.07-.12-.07-.12,0v11.3c0,.83-.26,2,.17,2.65,0,.06.13,0,.09-.06Z"/><path d="M105.41,51.71V48a.06.06,0,0,0-.11,0v3.72a.06.06,0,0,0,.11,0Z"/><path d="M118.36,41.3h6.15c.07,0,.07-.12,0-.12h-6.15c-.07,0-.07.12,0,.12Z"/><path d="M141.73,39.89H143a1.35,1.35,0,0,1,.8.31,1.25,1.25,0,0,1,.44,1c0,.07.12.07.12,0a1.36,1.36,0,0,0-1-1.36,3,3,0,0,0-1-.07h-.72a.06.06,0,1,0,0,.11Z"/><path d="M130.69,39.89H140.8a.06.06,0,1,0,0-.11H130.69a.06.06,0,0,0,0,.11Z"/><path d="M125.14,41.25h10.22a.06.06,0,1,0,0-.11H125.14a.06.06,0,1,0,0,.11Z"/><path d="M144.27,41.46V60.7c0,.07.12.07.12,0V41.46c0-.07-.12-.07-.12,0Z"/><path d="M144.3,61.11v4.46c0,.07.12.07.12,0V61.11a.06.06,0,0,0-.12,0Z"/><path d="M143,67.48a1,1,0,0,0,1-1,.06.06,0,0,0-.11,0,.86.86,0,0,1-.24.66.87.87,0,0,1-.65.25c-.07,0-.07.12,0,.12Z"/><circle class="cls-14" cx="106.73" cy="40.52" r="0.26"/><circle class="cls-15" cx="107.7" cy="40.52" r="0.26"/><circle class="cls-16" cx="108.61" cy="40.52" r="0.26"/><path d="M143.62,41.15h-5a.06.06,0,0,0,0,.11h5a.06.06,0,0,0,0-.11Z"/><path d="M107.51,67.5H126.1c.07,0,.07-.12,0-.12H107.51c-.07,0-.07.12,0,.12Z"/><path d="M131.49,67.5h11a.06.06,0,0,0,0-.12h-11c-.07,0-.07.12,0,.12Z"/><rect class="cls-12" x="118.62" y="55.8" width="170.26" height="94.04" rx="4.75"/><path class="cls-13" d="M118.74,60.56a4.75,4.75,0,0,1,4.75-4.75H284.25A4.75,4.75,0,0,1,289,60.56S118.74,60.87,118.74,60.56Z"/><path d="M152.22,55.65h-23.6c-3.06,0-7.52-.83-9.33,2.46-.82,1.49-.72,3.19-.72,4.83v64.47a.13.13,0,1,0,.25,0V95.24c0-11.28-.14-22.56,0-33.84,0-1.93.59-3.87,2.39-4.86,1.54-.85,3.32-.63,5-.63h26a.13.13,0,0,0,0-.26Z"/><path d="M120.08,77.46v-16c0-.13-.09-.67,0-.78s1.27.08,1.36.08h13.93q5.9,0,11.81.05c4.78,0,9.56,0,14.35,0a.13.13,0,0,0,0-.25c-13.86,0-27.72-.07-41.58-.07a.12.12,0,0,0-.12.12V77.46a.13.13,0,1,0,.25,0Z"/><path d="M120.76,146.58c-1.18-1.72-.54-4.31-.5-6.27,0-.76,0-1.53,0-2.3V99.94a.13.13,0,0,0-.25,0v37.6c0,.92,0,1.85,0,2.77,0,2-.69,4.62.53,6.39.1.14.32,0,.22-.12Z"/><path d="M120.11,95.78V83.31a.13.13,0,0,0-.25,0V95.78a.13.13,0,1,0,.25,0Z"/><path d="M163.62,60.79h33.82a.13.13,0,0,0,0-.26H163.62a.13.13,0,0,0,0,.26Z"/><path d="M222.82,56.08H278.7a.13.13,0,0,0,0-.25H222.82a.13.13,0,0,0,0,.25Z"/><path d="M185.56,56.08H215a.13.13,0,0,0,0-.25H185.56a.13.13,0,0,0,0,.25Z"/><path d="M159.41,56h21.75a.13.13,0,0,0,0-.26H159.41a.13.13,0,0,0,0,.26Z"/><path d="M220.87,60.64h38a.13.13,0,0,0,0-.26h-38a.13.13,0,0,0,0,.26Z"/><path d="M288.85,61.42v64.51a.13.13,0,0,0,.25,0V61.42a.13.13,0,1,0-.25,0Z"/><path d="M288.94,127.3v15a.13.13,0,0,0,.25,0v-15a.13.13,0,0,0-.25,0Z"/><path d="M284.65,148.61a3.16,3.16,0,0,0,3.3-3.38c0-.17-.27-.17-.25,0a2.92,2.92,0,0,1-3.05,3.13c-.16,0-.16.24,0,.25Z"/><circle class="cls-14" cx="124.6" cy="58.26" r="0.87"/><circle class="cls-15" cx="127.85" cy="58.26" r="0.87"/><circle class="cls-16" cx="130.89" cy="58.26" r="0.87"/><path d="M286.57,60.42H270a.13.13,0,0,0,0,.25h16.57a.13.13,0,0,0,0-.25Z"/><path d="M127.22,148.67h80.19a.13.13,0,1,0,0-.25H127.22a.13.13,0,1,0,0,.25Z"/><path d="M225.51,148.67h57.3a.13.13,0,0,0,0-.25h-57.3a.13.13,0,0,0,0,.25Z"/><rect class="cls-12" x="254.01" y="126.39" width="42.64" height="30.38" rx="1.54"/><path class="cls-13" d="M254.05,127.93a1.52,1.52,0,0,1,1.53-1.53h39.57a1.53,1.53,0,0,1,1.54,1.53S254.05,128,254.05,127.93Z"/><path d="M254.09,149.53V131.47c0-1,0-2.08,0-3.11.08-2.23,1.83-1.91,3.45-1.91,3.41,0,6.81,0,10.22,0l11.62,0a.07.07,0,0,0,0-.13c-7.19,0-14.38,0-21.57,0-1.15,0-3-.4-3.66.91a6,6,0,0,0-.18,2.38v19.91a.06.06,0,0,0,.12,0Z"/><path d="M254.5,133.39v-5.15s0-.23,0-.27l.47.05h8.19c1.57,0,3.14,0,4.71,0a.06.06,0,0,0,0-.12c-4.48,0-9,0-13.43,0a.07.07,0,0,0-.07.07v5.43a.07.07,0,0,0,.13,0Z"/><path d="M254.72,155.71c-.42-.69-.16-1.92-.16-2.77V140.65a.07.07,0,0,0-.13,0V152.9c0,.9-.28,2.11.18,2.87,0,.07.15,0,.11-.06Z"/><path d="M254.51,139.31v-4a.06.06,0,0,0-.12,0v4a.06.06,0,0,0,.12,0Z"/><path d="M268.54,128h6.66a.07.07,0,0,0,0-.13h-6.66a.07.07,0,0,0,0,.13Z"/><path d="M293.86,126.51h1.43a1.42,1.42,0,0,1,.86.33,1.37,1.37,0,0,1,.48,1.09.06.06,0,0,0,.12,0,1.57,1.57,0,0,0-.36-1,1.62,1.62,0,0,0-.68-.43,3.13,3.13,0,0,0-1.06-.08h-.79a.07.07,0,0,0,0,.13Z"/><path d="M281.9,126.51h11a.07.07,0,0,0,0-.13h-11a.07.07,0,0,0,0,.13Z"/><path d="M275.88,128H287a.07.07,0,0,0,0-.13H275.88a.07.07,0,0,0,0,.13Z"/><path d="M296.62,128.21v20.84a.06.06,0,0,0,.12,0V128.21a.06.06,0,0,0-.12,0Z"/><path d="M296.65,149.49v4.84a.06.06,0,1,0,.12,0v-4.84a.06.06,0,0,0-.12,0Z"/><path d="M295.29,156.4a1.08,1.08,0,0,0,.79-.32,1.06,1.06,0,0,0,.29-.8c0-.08-.13-.08-.12,0a1,1,0,0,1-.26.72.91.91,0,0,1-.7.27.07.07,0,0,0,0,.13Z"/><circle class="cls-14" cx="255.94" cy="127.19" r="0.28"/><circle class="cls-15" cx="256.99" cy="127.19" r="0.28"/><circle class="cls-16" cx="257.97" cy="127.19" r="0.28"/><path d="M295.91,127.87h-5.36a.06.06,0,0,0,0,.12h5.36c.07,0,.08-.12,0-.12Z"/><path d="M256.78,156.42h20.14a.06.06,0,1,0,0-.12H256.78a.06.06,0,0,0,0,.12Z"/><path d="M282.77,156.42h11.92a.06.06,0,1,0,0-.12H282.77a.06.06,0,0,0,0,.12Z"/><path class="cls-17" d="M310.65,105.43l-35.24.09-9.43,0a4.74,4.74,0,0,1-4.74-4.73h0A4.72,4.72,0,0,1,266,96.07l8.89,0L310.64,96a4.73,4.73,0,0,1,4.74,4.72h0A4.74,4.74,0,0,1,310.65,105.43Z"/><text class="cls-18" transform="translate(274.67 102.52) rotate(0.1)">R</text><text class="cls-18" transform="matrix(1, 0, 0, 1, 278.67, 102.53)">e</text><text class="cls-18" transform="translate(281.97 102.54) rotate(0.1)">c</text><text class="cls-18" transform="translate(285.02 102.54) rotate(0.1)">o</text><text class="cls-18" transform="translate(288.3 102.55) rotate(0.1)">m</text><text class="cls-18" transform="translate(293.24 102.56) rotate(0.1)">m</text><text class="cls-18" transform="translate(298.18 102.56) rotate(0.1)">e</text><text class="cls-18" transform="translate(301.47 102.57) rotate(0.1)">n</text><text class="cls-18" transform="matrix(1, 0, 0, 1, 304.74, 102.57)">d</text><text class="cls-18" transform="matrix(1, 0, 0, 1, 308.03, 102.58)">e</text><text class="cls-18" transform="matrix(1, 0, 0, 1, 311.33, 102.59)">d</text><path class="cls-19" d="M275.41,105.52l-9.43,0a4.74,4.74,0,0,1-4.74-4.73h0A4.72,4.72,0,0,1,266,96.07l8.89,0Z"/><circle class="cls-20" cx="269.65" cy="99.63" r="1.85"/><line class="cls-21" x1="268.8" y1="101.22" x2="267.46" y2="103.58"/><path class="cls-22" d="M266,95.93a5.23,5.23,0,0,0-4.63,3.45,5.36,5.36,0,0,0-.21,2.32,3.51,3.51,0,0,0,.94,1.94,5.72,5.72,0,0,0,1.95,1.54,5.16,5.16,0,0,0,2.43.37c.18,0,.18-.3,0-.29a4.65,4.65,0,0,1-3.88-1.5,3.59,3.59,0,0,1-1.13-1.9,4.83,4.83,0,0,1,1.26-4.21A5.49,5.49,0,0,1,266,96.21c.18,0,.18-.31,0-.28Z"/><path class="cls-22" d="M283.24,96.08c3.1-.15,6.23,0,9.33,0l14,.18,5.12.08c.19,0,.19-.27,0-.28-8.17-.15-16.34-.27-24.51-.3-1.32,0-2.65,0-4,0-.18,0-.18.29,0,.28Z"/><path class="cls-22" d="M313,97a3,3,0,0,1,1.87,2.43c0,.18.3.18.28,0a3.29,3.29,0,0,0-2.07-2.71c-.17-.06-.25.21-.08.28Z"/><path class="cls-22" d="M313.68,104.53a2.41,2.41,0,0,0,.93-1,.14.14,0,1,0-.24-.14,2.15,2.15,0,0,1-.83.91.16.16,0,0,0-.06.2.16.16,0,0,0,.2,0Z"/><path class="cls-22" d="M301,105.31a74.65,74.65,0,0,0,7.48,0c.18,0,.18-.29,0-.28a74.65,74.65,0,0,1-7.48,0c-.18,0-.18.27,0,.28Z"/><path class="cls-22" d="M275.17,102.43c-.22-1.55-.05-3.13-.27-4.68,0-.18-.29-.1-.27.08.22,1.54.05,3.13.27,4.68,0,.18.3.1.27-.08Z"/><path class="cls-22" d="M272.12,96.26l7-.22,1.14,0c.18,0,.18-.29,0-.28l-7,.21-1.14,0a.14.14,0,0,0,0,.28Z"/><path class="cls-22" d="M280.33,105.68c3.86-.1,7.71-.1,11.57-.15.6,0,1.19,0,1.79,0,.18,0,.18-.29,0-.28-3.86.09-7.72.09-11.57.14l-1.79,0a.15.15,0,0,0,0,.29Z"/><circle class="cls-23" cx="316.81" cy="115.79" r="5.14"/><path class="cls-24" d="M318.9,115a.79.79,0,0,0-.52.19l-1.8-1.36a.77.77,0,0,0,.08-.34.79.79,0,1,0-.79.79.76.76,0,0,0,.47-.16l1.83,1.37a.73.73,0,0,0-.06.3.85.85,0,0,0,0,.23l-1.85,1.1a.79.79,0,0,0-1.27.63.79.79,0,0,0,1.58,0,.73.73,0,0,0-.08-.33l1.81-1.08a.79.79,0,1,0,.56-1.34Z"/><path d="M313.32,119.39c-1.38-1.49-2.16-3.75-1.16-5.64a5.44,5.44,0,0,1,3.62-2.88,5.86,5.86,0,0,1,3.74.64c.12.06.23-.12.11-.18a5.56,5.56,0,0,0-6,.29,5.33,5.33,0,0,0-2.18,3.63,6,6,0,0,0,1.69,4.29c.09.09.23-.05.14-.15Z"/><path d="M316.47,120.89c3,.64,5.49-2.42,5.56-5.18a4.14,4.14,0,0,0-.61-2.3.11.11,0,0,0-.18.11c1.86,3-1.1,8-4.72,7.17a.1.1,0,0,0,0,.2Z"/><path class="cls-4" d="M232.83,108.46s51.77-17.89,51-54S255.44-1.35,233.9.18C172.69,4.53,178,58.49,178,58.49"/></g><path class="cls-25" d="M133.91,144.4C138,91,81.77,76.59,51.17,98.9c-19.86,14.48-25.87,38.48-20,57.32,5.76,18.54,24.57,38.24,54.77,33.69"/><path class="cls-25" d="M13.74,256.29s-1-32.87,20.22-54.07,36.57-14.39,36.57-14.39"/><rect class="cls-5" x="29.94" y="113.55" width="8.93" height="8.17" rx="4.09"/><path class="cls-6" d="M33.31,116.5a1.06,1.06,0,0,1,2.12,0"/><path class="cls-6" d="M33,116.53h2.75a.49.49,0,0,1,.48.4l.35,1.83a.5.5,0,0,1-.49.59H32.65a.49.49,0,0,1-.48-.59l.34-1.83A.5.5,0,0,1,33,116.53Z"/><path class="cls-26" d="M203,141.1s43.29,3.52,47.71-22.24"/><path class="cls-27" d="M275.67,207h0a3.45,3.45,0,0,1,3.45,3.45v22.7a0,0,0,0,1,0,0h-6.91a0,0,0,0,1,0,0v-22.7A3.45,3.45,0,0,1,275.67,207Z"/><path class="cls-28" d="M286.35,217.25h0a3.45,3.45,0,0,1,3.45,3.45v12.45a0,0,0,0,1,0,0H282.9a0,0,0,0,1,0,0V220.71A3.45,3.45,0,0,1,286.35,217.25Z"/><path class="cls-29" d="M297.21,199.12h0a3.45,3.45,0,0,1,3.45,3.45v30.58a0,0,0,0,1,0,0h-6.91a0,0,0,0,1,0,0V202.57a3.45,3.45,0,0,1,3.45-3.45Z"/><path class="cls-30" d="M308.92,192.79h0a3.45,3.45,0,0,1,3.45,3.45v36.91a0,0,0,0,1,0,0h-6.91a0,0,0,0,1,0,0V196.24A3.45,3.45,0,0,1,308.92,192.79Z"/><path d="M272.48,232.94V210.38a.19.19,0,0,0-.38,0v22.56a.19.19,0,0,0,.38,0Z"/><path d="M286.62,217.44a2.88,2.88,0,0,1,2.8,3c0,.85,0,1.7,0,2.55v9.91a.19.19,0,0,0,.38,0c0-4.22.1-8.44,0-12.65a3.25,3.25,0,0,0-3.18-3.24.2.2,0,0,0,0,.39Z"/><path d="M293.67,204.66v28.28a.19.19,0,0,0,.38,0V204.66a.19.19,0,0,0-.38,0Z"/><path d="M305.28,197.41v27.84a.19.19,0,0,0,.38,0V197.41a.19.19,0,0,0-.38,0Z"/><path d="M308.19,193.08c2.15,0,3.88.94,3.95,3.29,0,.62,0,1.24,0,1.86v34.92a.19.19,0,0,0,.38,0V197.82c0-.53,0-1.07,0-1.61-.11-2.51-2.07-3.51-4.33-3.51a.19.19,0,0,0,0,.38Z"/><path d="M317.61,232.74H266.75a.19.19,0,0,0,0,.38h50.86a.19.19,0,0,0,0-.38Z"/><path class="cls-17" d="M183.15,96l2.28,0,6.09-.06,49.72-.47a2.72,2.72,0,0,0,2.7-2.76l-.65-68.75a2.74,2.74,0,0,0-2.76-2.71l-58.09.55a2.74,2.74,0,0,0-2.71,2.76l.65,68.76A2.74,2.74,0,0,0,183.15,96Z"/><rect class="cls-31" x="180.05" y="32.25" width="63.56" height="52" transform="translate(424.21 114.49) rotate(179.45)"/><line class="cls-32" x1="225" y1="27.13" x2="194.74" y2="27.41"/><circle class="cls-28" cx="186.96" cy="27.27" r="3.3"/><path class="cls-33" d="M188,93.31c3.17-.13,5.19-4.56,4-5.61-1.84-1.55-3.37,1.6-3.37,1.6s-1.3-2.6-3.12-2.06S185.44,93.41,188,93.31Z"/><g class="cls-34"><g class="cls-35"><path d="M192.86,75.17S174.27,77,170.43,91.09s21.71,28.63,51.46,17.41c13.57-5.12,12.55-16.13,12.55-16.13s-14.63-17.41-27.29-17S192.86,75.17,192.86,75.17Z"/><path class="cls-36" d="M205.36,35.75s-1.54-5.88,1-6.43c8.13-1.78,11.49,7.74,12.92,12.18,0,0,2,7.27-3.2,10C214.58,52.32,207.87,40.87,205.36,35.75Z"/><path class="cls-37" d="M211.09,35.3c2,2,7.52,2.21,7.75,8.73.16,4.39-3.76,7-3.76,7Z"/><path class="cls-36" d="M185,39.64a3.12,3.12,0,0,0-3.41,1.8c-.47,1.33-3.32,12.79-2.84,17.91s.76,8.52,6.06,14.4,7.11,5.3,8.05,1.42,1.8-7.86.48-12.51S185,39.64,185,39.64Z"/><path class="cls-37" d="M182.88,42S192,58,193.34,62.66s.47,8.62-.48,12.51-2.74,4.45-8.05-1.42a6.4,6.4,0,0,0,2.84-4.63c.18-1.1-4-9.71-4-9.71S177.67,47.34,182.88,42Z"/><path class="cls-38" d="M188.53,56.62c2.27,7.79,3.17,11,3.46,16.47.13,2.32,4.87,5.94,10.5,10.79A137.35,137.35,0,0,0,217,94.2c.39.45-2.9-7.9-3.27-10.32a3.44,3.44,0,0,0-.74-1.69c-1-1.29-3.11-3.87-3.31-4.32-.54-1.18-2.5-2.26-2.54-2.53-.36-2.36-.07-3-.86-6.54S188.53,56.62,188.53,56.62Z"/><path class="cls-39" d="M202.49,83.88C196.86,79,192.12,75.41,192,73.09c-.29-5.44-1.19-8.68-3.46-16.47,0,0,15,9.5,15.82,13.05l-6.78-1A2,2,0,0,0,195.15,71l1,4.48Z"/><path class="cls-38" d="M212.75,38.85c4.05,8.86,3.1,31.19-2.87,31.19-5.1,0-14.48-1.13-17.73-9s-5.4-13.77-3.23-19.39c1.09-2.81,7.6-2.18,12.41-3.47S211.05,35.14,212.75,38.85Z"/><path class="cls-39" d="M191.6,53.71s2.18.13,6.49-1.85,6.7-5.4,6-10.32-.41-5.26-.41-5.26l-3.41,2-8.82,11.41Z"/><path class="cls-40" d="M204.84,61.64c3.67-1,4.57-4.07,8-2.5,0,0-.48.93-3.19,1.94A9.3,9.3,0,0,1,204.84,61.64Z"/><path class="cls-40" d="M204.39,62.43c.51,1.38,2.71,3.47,4.92,3.05,4.65-.9,2.82-3.29,2.82-3.29Z"/><path class="cls-36" d="M189.22,54.91s1.33,1,2.08-.29.37-4,.37-4a6,6,0,0,0,3.42-4.25c.48-3-.94-3.79,1.9-6.16A15.33,15.33,0,0,1,203.88,37c.49-.1,4.53.33,5,.37.84.06,3.15-3.4,4.76,1,0,0,1,2.82,0,0-.46-1.24-5.2-2.86-5.83-3.81-.83-1.23-2.88-5.55-9.33-5.25-2.44.12-5.73,2.14-8.51,4.07-10.14,7-7.62,19.13-7.05,21.11s3.61,7.34,7.4,6.59Z"/><path class="cls-38" d="M190,55.05c-.8-1.15-1.48-2.33-3.29-1.59s.69,8.07,5.28,7.09A15.71,15.71,0,0,0,190,55.05Z"/><path d="M211.24,47.81a2.1,2.1,0,0,1,1-1.41,1.42,1.42,0,0,1,.58-.1h.19l.08,0a1.19,1.19,0,0,1,.27.07l0,0,.06,0,.12.07a.1.1,0,0,1,0,0s0,0,0,0l.08.08c.2.23.54-.11.34-.34a1.75,1.75,0,0,0-1.17-.49,1.88,1.88,0,0,0-1.52.64,3.18,3.18,0,0,0-.64,1.22.24.24,0,0,0,.46.13Z"/><path d="M213.37,58.64a11.43,11.43,0,0,1-3.69,1.72,21.48,21.48,0,0,1-5.85,1.13s1.11,3.19,5.67,2.29c3.26-.64,2.63-1.59,2.63-1.59a6.47,6.47,0,0,1,.41-1.76C212.89,59.62,213.37,58.64,213.37,58.64Z"/><path class="cls-41" d="M212.85,59a11.09,11.09,0,0,1-3.17,1.38,21.48,21.48,0,0,1-5.85,1.13,23,23,0,0,0,2.86.37,10.14,10.14,0,0,0,5.06-1.1C212.44,60.31,213,58.87,212.85,59Z"/><path d="M192.05,61.33c1.64,2.5,3.45,5.27,6.27,6.56.73.33,1.5.61,2.25.89a12.94,12.94,0,0,0,3.05.86c.2,0,.2-.3,0-.32a12.81,12.81,0,0,1-2.9-.83c-.75-.27-1.51-.55-2.24-.88-2.78-1.28-4.54-4-6.16-6.44-.11-.17-.39,0-.27.16Z"/><path d="M188.27,55.42l.73,1.94c.06.16.33.09.27-.08l-.74-1.93c-.06-.16-.33-.09-.26.07Z"/><path d="M209.15,57.76a6.25,6.25,0,0,1,2-.69l-.12-.3a7.36,7.36,0,0,1-1.53.72l.15.26.22-.17c.13-.11,0-.31-.15-.27l-.56.15a.16.16,0,0,0,0,.31,5.53,5.53,0,0,0,1.41,0,.16.16,0,0,0,.15-.2.36.36,0,0,1,.23-.37c.19-.07.11-.38-.08-.31a.68.68,0,0,0-.46.76l.16-.2a5.37,5.37,0,0,1-1.33,0v.31l.56-.15-.15-.27-.22.18c-.13.1,0,.31.15.26a7.56,7.56,0,0,0,1.61-.74.16.16,0,0,0-.12-.29,6.34,6.34,0,0,0-2.06.73c-.17.1,0,.37.17.27Z"/><path d="M210.58,57.6a1.26,1.26,0,0,0,.94-1.21,4,4,0,0,0-.74-1.93c-.4-.81-.68-1.69-1-2.53l-.45-1.23a.93.93,0,0,1-.12-.47,19.9,19.9,0,0,1,.28-3c0-.2-.26-.28-.3-.08a17.36,17.36,0,0,0-.28,2.79,3,3,0,0,0,.29,1.33c.34.9.67,1.81,1,2.7a8.43,8.43,0,0,0,.37.8c.37.67,1.18,2.22-.1,2.5a.16.16,0,0,0,.08.31Z"/><path d="M199.79,52.9c.75-.53,1.78-1.25,2.74-.81a.27.27,0,0,0,.36-.09.27.27,0,0,0-.09-.37c-1.18-.53-2.33.15-3.28.81a.29.29,0,0,0-.1.37.28.28,0,0,0,.37.09Z"/><path d="M212.4,50.54l.11-.11,0,0s0,0,0,0l.07,0,.07,0s.06,0,0,0,0,0,0,0l.17-.05h0c.05,0,0,0,0,0h.28l.08,0,.08,0h0l.05,0a.28.28,0,0,0,.37-.1.27.27,0,0,0-.1-.36,1.34,1.34,0,0,0-1.62.3.27.27,0,0,0,0,.37.27.27,0,0,0,.38,0Z"/><path d="M190.06,62.07c.65,3,1.18,6.11,1.58,9.19,0,.21.35.21.32,0-.4-3.11-.93-6.21-1.59-9.27a.16.16,0,0,0-.31.08Z"/><path d="M189.49,61.4a11.33,11.33,0,0,1-4.64-2.88,11.35,11.35,0,0,1-2.34-5.34c-.78-3.92-.22-8,.48-11.86,0-.2-.27-.29-.31-.08-.75,4.18-1.34,8.55-.32,12.74a11,11,0,0,0,2.37,4.89,12.08,12.08,0,0,0,4.67,2.84c.2.07.28-.24.09-.31Z"/><path d="M193.09,42.64a1,1,0,0,0,.58-.09,1,1,0,0,0,.39-.39.16.16,0,0,0-.06-.22.16.16,0,0,0-.22.06.24.24,0,0,1-.06.09s0,0,0,0l0,0,0,0a.08.08,0,0,1,0,0l0,0s0,0,0,0l-.09,0-.05,0h0l-.11,0h-.16c-.05,0-.08,0-.12,0a.17.17,0,0,0-.08.09.17.17,0,0,0,.11.2Z"/><path class="cls-36" d="M203.1,36.68c-1.86,1.73.8,4.59-.46,8.25-2.28,6.6-10.06,8.48-13.13,7.32,0,0,1.55-11.33,4.47-12.66A76.15,76.15,0,0,1,203.1,36.68Z"/><path class="cls-37" d="M202.34,38.76s-1.47-3.86.67-4.48c3.66-1.06,5.91,3.3,5.91,3.3a18.13,18.13,0,0,0-4.13-.36A3.18,3.18,0,0,0,202.34,38.76Z"/><path class="cls-37" d="M208.92,37.58s.35-3.69,1.49-4.13c2.18-.83,8.24,3.58,8.29,9.42,0,1.48-4.57-4.36-7.07-5.28C210.12,37,209.18,37.35,208.92,37.58Z"/><path d="M197,50.54a6.28,6.28,0,0,1,2.74-2.61c1-.48,2.59-.94,3.48,0,.21.22.55-.11.33-.34-1-1-2.62-.69-3.78-.19a6.66,6.66,0,0,0-3.19,2.9c-.14.27.27.51.42.24Z"/><path d="M202.78,61.75a16.12,16.12,0,0,0,6-1c1-.3,2-.62,3-1a5.2,5.2,0,0,0,2.09-1.07c.15-.14-.08-.37-.23-.23a6.19,6.19,0,0,1-2.54,1.19l-2.61.81a15.4,15.4,0,0,1-5.73.94c-.21,0-.21.3,0,.32Z"/><path d="M187.12,38.62a11.54,11.54,0,0,0,4-1.15c.18-.1,0-.37-.16-.28a11.12,11.12,0,0,1-3.82,1.11c-.2,0-.2.34,0,.32Z"/><path d="M196.53,33.76a12.06,12.06,0,0,1,3.31-3,4.42,4.42,0,0,1,4.57.14c2.34,1.44,3.53,4.11,4.31,6.64.06.19.37.11.31-.09-.85-2.73-2.18-5.63-4.83-7a4.63,4.63,0,0,0-4.15-.11,11.33,11.33,0,0,0-3.74,3.25c-.14.16.09.38.22.23Z"/><path d="M203.1,43c-.13-2-.93-3.92-1-5.93a2.43,2.43,0,0,1,1.31-2.58,2.94,2.94,0,0,1,3,.68c.16.14.38-.09.23-.22a3.42,3.42,0,0,0-2.8-.92,2.44,2.44,0,0,0-2,1.83,7.63,7.63,0,0,0,.22,3.32,26.46,26.46,0,0,1,.71,3.82c0,.21.33.21.32,0Z"/><path d="M189.63,52a5.16,5.16,0,0,0,5,.34c.19-.08,0-.36-.16-.27a4.85,4.85,0,0,1-4.64-.34c-.17-.12-.34.16-.16.27Z"/><path d="M190.41,60.87a7.36,7.36,0,0,1-4.19-5c-.14-.52-.46-1.29-.12-1.78a2.06,2.06,0,0,1,1.36-.65c1.34-.21,2.15,1,2.95,1.9.14.16.37-.07.23-.22-.64-.7-1.33-1.71-2.3-2a2.66,2.66,0,0,0-2.44.69,1.29,1.29,0,0,0-.24,1.07,12.28,12.28,0,0,0,.45,1.71,7.81,7.81,0,0,0,1.49,2.67,7.48,7.48,0,0,0,2.73,2c.19.07.27-.23.08-.31Z"/><path d="M191.39,52.53a4.56,4.56,0,0,1-.37,1.82.16.16,0,0,0,.06.22.15.15,0,0,0,.21,0,5.11,5.11,0,0,0,.42-2,.16.16,0,0,0-.32,0Z"/><path d="M184.6,39.82A9.59,9.59,0,0,1,187,36.38a30,30,0,0,1,3.14-2.81c.16-.13-.07-.35-.23-.22a30.36,30.36,0,0,0-3.27,2.94,9.62,9.62,0,0,0-2.36,3.45c-.06.19.25.28.31.08Z"/><path d="M191.37,32.63c.88-.57,1.86-1,2.76-1.51a14.7,14.7,0,0,1,1.4-.78c.52-.22,1.07-.39,1.61-.57a6.71,6.71,0,0,1,2.32-.25A6.2,6.2,0,0,1,202,30c.18.09.35-.19.16-.27a6.17,6.17,0,0,0-2.29-.47,7.84,7.84,0,0,0-2.51.17,11.5,11.5,0,0,0-3,1.26c-1,.63-2.11,1.07-3.11,1.72-.17.11,0,.39.17.27Z"/><path d="M209.38,36.13a3.59,3.59,0,0,1,.67-2.09c.68-.72,1.88-.37,2.7-.08a7.67,7.67,0,0,1,3.89,3.12,14.33,14.33,0,0,1,2,4.6,13,13,0,0,1-.44,5.68c0,.2.27.29.31.08a12.65,12.65,0,0,0,.28-6.46A13.28,13.28,0,0,0,216,35.75a7.49,7.49,0,0,0-4.54-2.43c-1.77-.21-2.28,1.34-2.42,2.81,0,.2.3.2.32,0Z"/><path d="M216.74,51.36a9.74,9.74,0,0,0,1.9-2,5.77,5.77,0,0,0,.87-2.47c0-.21-.3-.2-.32,0a5.49,5.49,0,0,1-.87,2.37,9.48,9.48,0,0,1-1.81,1.88c-.15.13.07.36.23.22Z"/></g></g><path d="M232,95.53a20.09,20.09,0,0,1,3.29-.15c1.57,0,3.13-.07,4.69-.19a7.15,7.15,0,0,0,3.05-.54c.72-.47.65-1.61.67-2.38.05-3.21,0-6.43,0-9.65q-.09-17.72-.2-35.44c0-3.55-.12-7.11,0-10.66,0-.26-.41-.26-.41,0-.21,8.39.06,16.82.11,25.21.05,9.81.16,19.62.15,29.44,0,.4,0,.81,0,1.21,0,.83,0,1.78-.87,2.06a10.26,10.26,0,0,1-2.06.31c-1.73.15-3.46.18-5.18.22a20,20,0,0,0-3.28.16c-.26.06-.15.46.11.4Z"/><path d="M242.89,31.41c0-2.76.06-5.53,0-8.28a2.18,2.18,0,0,0-1.19-2.1,5,5,0,0,0-2.66-.2c-.26,0-.27.45,0,.42a4.61,4.61,0,0,1,2.47.16c1.14.51,1,1.84,1,2.88l0,7.12c0,.26.42.26.41,0Z"/><path d="M236.53,20.94l-23.9.23a.21.21,0,0,0,0,.41l23.9-.23a.21.21,0,0,0,0-.41Z"/><path d="M192.28,21.34l-10,.09a.21.21,0,0,0,0,.42l10-.1c.26,0,.26-.42,0-.41Z"/><path d="M180.69,22.11c-1.65,1.2-1.22,4-1.23,5.8q0,4.14,0,8.28c0,5.16,0,10.33.34,15.48,0,.27.43.27.41,0-.27-4.73-.27-9.48-.32-14.22q0-4,0-8c0-1.8-.56-5.85,1-7,.22-.16,0-.52-.21-.36Z"/><path d="M229.63,95.12l-31.84.3-5.27,0c-.26,0-.27.42,0,.41l31.84-.3,5.27,0c.26,0,.26-.42,0-.41Z"/><path d="M185.44,95.69a10.44,10.44,0,0,1-3.44-.13c-1.46-.53-1.41-2.07-1.42-3.36l-.07-8-.22-22.56,0-5.66a.21.21,0,0,0-.42,0l.35,36.59c0,1.31.14,2.68,1.5,3.29,1.11.5,2.61.25,3.77.24a.21.21,0,0,0,0-.42Z"/><path d="M233,31.76,203.7,32l-5.08.05a.21.21,0,0,0,0,.42l29.25-.28,5.08,0a.21.21,0,0,0,0-.42Z"/><circle class="cls-42" cx="250.7" cy="118.86" r="16.81"/><polygon class="cls-42" points="235.86 115.82 228.88 117.72 235.84 122.53 235.86 115.82"/><g class="cls-43"><g class="cls-44"><path class="cls-45" d="M235.75,152.32a13.77,13.77,0,0,0-2.33-.55,20.59,20.59,0,0,1-3-.94,1.29,1.29,0,0,1,0-.58c0-.47.52-10.27,3.65-16.76,1.89-3.92,2.91-6.49,4.15-7.59,2.61-2.33,9.69-3.87,12.64-4,4.83-.21,9.9,1.76,12.41,4,4.59,4.14,7.93,21,8.74,23.81a4.43,4.43,0,0,1-4.34,3.38s-3.58-4.44-4.22-5.65c-1-1.79-1.79-4.39-3-6.85,0,0,0,5.71-.21,11a22.79,22.79,0,0,1-.89,6.38c-.07.22-17.15.33-18.85-.68-1-.6-.53-5.85-.58-8-.1-4.45-.11-10-.19-10.64Z"/><path class="cls-46" d="M245.63,111.29s-1,1.16,0,4.33l.89-4.31Z"/><path class="cls-47" d="M247.63,121.08s-2.17-.26-2.12-4.46.9-6.49,2.34-7.73a5.34,5.34,0,0,1,8.4,1.3c1.23,2.1-.37,6.84-.63,7.79-.18.66-1,1.78-1.11,2.43a3.41,3.41,0,0,0,.22,2.29s-8,4.5-7.68.18C247.05,122.8,247.63,121.08,247.63,121.08Z"/><path class="cls-48" d="M239.22,124.94a37.4,37.4,0,0,0,.48,12.79c0,.11.2.06.18,0A37.33,37.33,0,0,1,239.4,125c0-.11-.16-.16-.18,0Z"/><path d="M254.85,109.43l.1-.05,0,0,.19-.07.2-.05.12,0H256l.21,0h.05l.11,0a.32.32,0,0,0,.38-.22.31.31,0,0,0-.21-.38,3,3,0,0,0-2,.27.3.3,0,0,0-.11.42.31.31,0,0,0,.42.11Z"/><path d="M255,107.66l-.06.78a.31.31,0,0,0,.31.31.31.31,0,0,0,.22-.09.4.4,0,0,0,.09-.22l0-.78a.31.31,0,0,0-.3-.3.29.29,0,0,0-.22.09.33.33,0,0,0-.09.21Z"/><path class="cls-48" d="M259.72,136.84v.45h.18a21.62,21.62,0,0,1,1.93-12.22c.06-.11-.11-.21-.16-.1a21.76,21.76,0,0,0-1.95,12.36.09.09,0,0,0,.18,0,1.1,1.1,0,0,0,0-.54c0-.12-.2-.07-.18.05Z"/><path class="cls-48" d="M246.51,122.74a1.45,1.45,0,0,0,0,1.55,2.11,2.11,0,0,0,1.34.93.09.09,0,0,0,.05-.18,1.93,1.93,0,0,1-1.21-.81,1.27,1.27,0,0,1,0-1.39c.08-.1-.09-.19-.16-.1Z"/><path class="cls-48" d="M248.94,125.31a4.67,4.67,0,0,0,1-.08.1.1,0,0,0,.07-.11.1.1,0,0,0-.12-.07,4.21,4.21,0,0,1-.94.07.1.1,0,0,0,0,.19Z"/><path class="cls-48" d="M251.2,124.92c2-.41,4-1.2,5.09-3,.06-.1-.1-.19-.17-.09-1.06,1.75-3.06,2.5-5,2.9a.09.09,0,0,0,0,.18Z"/><path class="cls-46" d="M247,112.43c-2.08-.13-2.94-.75-3.7-2.66-.33-.82-.5-3.47.71-4,.7-.3,1.59,2.09,1.59,2.09a1.43,1.43,0,0,1,.72-1.75c.67-.32,1.7.57,1.71,1.51a3.46,3.46,0,0,1,.75-1.64c.5-.38,2,0,2,1.74,0,0,.84-1.3,4.12,1s1.32,9.39.32,10.66a5.66,5.66,0,0,1-.68-2.35,1.76,1.76,0,0,0,1.24-1.92c0-1.88-1.26-1.05-1.41-.54l-.57.16-.17-1.06a2.77,2.77,0,0,1-2-1.53A27.62,27.62,0,0,1,247,112.43Z"/></g></g><circle class="cls-29" cx="248.5" cy="163.37" r="8.77"/><text class="cls-49" transform="translate(245.34 166.8) scale(1 0.95)">$</text><path d="M242.55,169.52c-2.37-2.54-3.69-6.41-2-9.64a9.36,9.36,0,0,1,6.2-4.91,10.12,10.12,0,0,1,6.38,1.09c.21.1.39-.2.18-.3-3.33-1.64-7.12-1.84-10.17.5-1.85,1.41-3.61,3.77-3.72,6.18a10.23,10.23,0,0,0,2.88,7.33c.15.17.4-.08.25-.25Z"/><path d="M247.92,172.07c5.07,1.11,9.38-4.13,9.5-8.84a7,7,0,0,0-1.05-3.92c-.12-.19-.42,0-.3.18,3.18,5.09-1.89,13.59-8.06,12.24-.22,0-.32.3-.09.34Z"/><path class="cls-50" d="M184.88,187.36c4.55,7.59,6.58,20.24,12.15,21a76.31,76.31,0,0,0,12.9.25s-2.53-8.09-2.78-13.66,3.77-25.55,5.82-47.07C214.8,128.66,184.88,187.36,184.88,187.36Z"/><path d="M186.14,189.53l7.44,10.68s3.56,5,3.4,4.5-4.46-12.34,0-14.54Z"/><path class="cls-51" d="M197,208.36l12.9.25s1,17.21,1.27,21.26-3,21.51-9.11,22.27S197,208.36,197,208.36Z"/><path class="cls-52" d="M126.17,166.61a46.39,46.39,0,0,0,5.06-13.16c1.52-7.34,2.53-27.08,6.08-34.42s16.7-9.11,21.76-11.64l24.29-6.07s14.74.77,22.78,6.33c6.57,4.55,9.36,10.88,9.11,18.47s-4.31,45-6.58,51.87-4.33,11.93-11.67,12.18-36.41-1-36.41-1l-24.76,5.78-2.07-5.78Z"/><path class="cls-50" d="M135.15,192.71l1.69,6.77s10,.33,12.18-5.25,1.36-5.75,1.36-5.75Z"/><path class="cls-50" d="M139.78,154.57c.68,3.41,3.24,12.9,2.64,20.59,0,0,.12,4.8-.36,5.4s-2.52,3.6-2.52,3.6,0-4.8-.12-12.61S139.78,154.57,139.78,154.57Z"/><path class="cls-50" d="M190.83,161c-1.27,1.18-3,3.7-1.58-2.63s1.79-9.29,3.8-9.82,5.38,9.92,5.38,9.92S193.57,158.49,190.83,161Z"/><path d="M155.91,111.65a6.05,6.05,0,0,0-1,3.7,4.23,4.23,0,0,0,2.13,2.74c2.68,1.63,6.33,1.59,9.32,1.23,4.78-.59,9.64-1.75,13-5.48.24-.28-.17-.7-.42-.42-2.7,3-6.46,4.33-10.37,5a22.8,22.8,0,0,1-8.75.07,6.48,6.48,0,0,1-3.5-1.74c-1.35-1.44-.72-3.3.15-4.8a.29.29,0,0,0-.5-.3Z"/><path class="cls-53" d="M168.46,45.94c-3.84-1.63-8-.74-11.54,1.78s-8.72,1-11.09,6.94-6.37,9.13-4.14,18.87c1.41,6.12,8.37,10.87,5.89,19.28-1.4,4.73-6.61,7-7.75,11.81-1.4,5.81,3.83,4.54,4.82,9.21.54,2.57-8.38,4.2-10.23,11.33-.84,3.23,0,4.79,1.12,5.55a4.62,4.62,0,0,1,2,4.14c-.16,2.3.13,5.27,2.15,7.29.23.22.71-7.66,1.69-11.51,2.15-8.43,8.06-5.18,9.82-11.66,1.93-7.11,12.09-8.75,12.28-14.5L162.06,101Z"/><path class="cls-38" d="M178.48,77.55c.5,7.84.25,21.26,2.78,24s-4.5,14.89-15.63,14.89-8.29-4.94-6.6-6.74c2.63-2.8,3.17-3.09,3.17-5.4,0-2.89-2.12-10.36-2.12-10.36Z"/><path class="cls-54" d="M171,93.3l3.41,3.26-3.26,14.65s-2.9,4.27-7,5.16c0,0,8.44,1,13.56-4.86,7.56-8.71,3.7-16.73,3.7-17.47S177,89,177,89Z"/><path class="cls-38" d="M160.13,100.55c-7.34,0-11.62-14.45-11.62-20.62,0-8.58-1.92-17.81,4.13-22.14,1.25-.9,3.72.34,3.72.34s18.84-4.82,22.08,1.46c4.05,7.84,5.56,11.62,3.79,20.73S170.76,100.55,160.13,100.55Z"/><path d="M176,90.93a22.27,22.27,0,0,1-7.21,6.41c-.33.18,0,.68.3.5a22.82,22.82,0,0,0,7.41-6.62c.23-.29-.27-.58-.5-.29Z"/><path class="cls-55" d="M155.48,90.5c-.62-.83-.07,3.07,2.59,3,6.25-.23,7.46-3.58,7.46-3.58S157.31,92.94,155.48,90.5Z"/><path class="cls-55" d="M155.48,90.5c-1-.55.08-1.37,1.3-.76l1.22.61s.53-1.14,2.51-1.07a48.92,48.92,0,0,1,5,.61S159.29,92.63,155.48,90.5Z"/><path class="cls-56" d="M88.47,200.26c19.32,1.12,32.65-2.86,42.2-.83,5.59,1.18,12.25-6,16.07-4.18,10.38,4.81-1.84,30.57-7.41,35.38S88.47,200.26,88.47,200.26Z"/><polygon points="109.47 198.79 127.14 207.46 133.57 213.25 144.49 201.36 109.47 198.79"/><path class="cls-38" d="M82.65,196.21c-7.59.51-12.15,4-12.66,13.67s18.48,21.76,21,22.77,32.64,14.43,32.64,14.43l18.47-14.68s-20.24-19.74-35.42-26.82S88.48,195.82,82.65,196.21Z"/><path class="cls-57" d="M110.32,207.45l7.64,10.4,4.58,7.08,3.55-4.15s2.93-1.71-.86-3.67S110.32,207.45,110.32,207.45Z"/><path class="cls-38" d="M125.73,247c3.47,2.37,12,5.29,18.26,7.85s9.12,4,12.23,6.2,5.84,3.11,8.39,2.38,4.2-16.07,4.2-16.07L146.72,237Z"/><path class="cls-57" d="M138.77,252.65l11.56-12.53s-2.81-2.7-5.08-1.08-14.91,7.67-15.55,8.43-.65,1.51,1.4,2.05A80.35,80.35,0,0,1,138.77,252.65Z"/><path class="cls-58" d="M181.59,184.32c9.1,8.36,17.71,18.47,24.29,39.22s-.76,31.89-13.66,34.42-55.67-26.32-55.67-26.32S172.23,175.72,181.59,184.32Z"/><path class="cls-56" d="M181.16,201.2c-6.44,1.26-9.25,51.47-21.53,44.59s-23.08-14.15-23.08-14.15,33.3-49.56,42.66-41Z"/><path class="cls-59" d="M189.73,225.73c2.33,31.92-36,17.52-20.09,25.37,9.15,4.52,17.86,7.78,22.58,6.86,12.9-2.53,20.24-13.67,13.66-34.42S189.73,225.73,189.73,225.73Z"/><path class="cls-58" d="M116.31,230.8c2.53,4.81,10.87,11.22,20,14,0,0,36.44-22,41.76-29.1s13.41-19.74,6.83-28.34-13.2-8.65-19.74-5.82c-9.36,4.05-26.29,25.29-29.35,28.59C129.46,217,116.31,230.8,116.31,230.8Z"/><path class="cls-38" d="M136.29,244.8c-9.11-2.78-17.2-8.35-19.73-13.16a78.65,78.65,0,0,1-13.67,12.65C94,250.87,92,247.84,89.48,250.62s-4.56,8.86-2.78,11.13,3.79,2.53,6.07,2.79,8.86.07,10.3-.62c5.72-2.74,4.53-5.55,6.56-6.56S136.29,244.8,136.29,244.8Z"/><path class="cls-57" d="M86.7,261.75c1.77,2.28,3.79,2.53,6.07,2.79s8.86.07,10.3-.62c5.72-2.74,4.53-5.55,6.56-6.56s26.66-12.56,26.66-12.56A48,48,0,0,1,125.52,240c-1.06-.65-1.46,1-2.51,1.72-3.14,2.15-7.64,7.86-17.55,13.52,0,0,.71,4.65-5.49,6.19A37.33,37.33,0,0,1,86.7,261.75Z"/><path class="cls-52" d="M102.89,244.29C94,250.87,92,247.84,89.48,250.62s-4.56,8.86-2.78,11.13,3.79,2.53,6.07,2.79c0,0-1.72,1.62-9.75,0s-11.13-.73-15.15-.55-19.53.73-20.26-8S58.38,243.53,69,243.71s19.53,1.46,22.08.73a20,20,0,0,1,6.39-1.28A9.57,9.57,0,0,1,102.89,244.29Z"/><path class="cls-60" d="M47.61,255.94c.73,8.76,16.24,8.22,20.26,8s7.12-1.09,15.15.55,9.75,0,9.75,0c-2.28-.26-4.3-.51-6.07-2.79s.25-8.35,2.78-11.13,4.55.25,13.41-6.33c0,0-1.63-1.46-5.83,1.14s-10.81,2.2-10.81,2.2-24-1.8-31.42,1.6S47.61,255.94,47.61,255.94Z"/><path class="cls-61" d="M57.71,150.25l58.42-4.86a4.46,4.46,0,0,1,4.59,3l17.93,52.47-65.11,2.19-18.93-47.8A3.66,3.66,0,0,1,57.71,150.25Z"/><path class="cls-62" d="M58.65,153.48l54.84-4.57a4.22,4.22,0,0,1,4.32,2.82L134.64,201l-61.13,2.06L55.74,158.18A3.44,3.44,0,0,1,58.65,153.48Z"/><path class="cls-38" d="M155.87,173.34c2.92-.62,6.31,8.14,5.85,10L156,188.86s-5.69,13.38-6.92,13.84-11.38,1.69-13.84.93-.77-2.16.62-2.46c0,0-3.54,1.07-4.16,0s0-2.46,2.31-3.23,6.61-2.77,6.61-2.77,4.46-4,4.61-4.77-1.07-.92-2-.31-3.39,3.39-7.69,5.23-4.77,2.15-5.38,1.54-.46-2.31,4.61-5.54c.44-.28,2.58-2,2.92-2.3,1.54-1.54.49-5.45,2.61-9.07,0,0,3.69-3.08,5.23-3.69s3.69-.16,6-1.23A36.11,36.11,0,0,1,155.87,173.34Z"/><path class="cls-57" d="M135.1,201s-3.51,1.61.17,2.64,9.72.13,9.72.13,5.82,0,7-4.59a39.69,39.69,0,0,1,4.31-9.65l-3.27,1s-5.14,7.72-8.41,8.81Z"/><path class="cls-52" d="M159.87,254.85a11,11,0,0,0,6.2,10.22c2.74,1.09,8.76,0,11,1.09s2.74,4,8.77,2.56,6-3.47,6-3.47l-.37-2.55s-3.81-20.26-7.27-21.54-7.51,2.37-11.34,3.83c-1.9.72-4.38,1.56-7.12,2.74S159.87,250.51,159.87,254.85Z"/><path class="cls-60" d="M159.87,254.85a11,11,0,0,0,6.2,10.22c2.74,1.09,8.76,0,11,1.09s2.74,4,8.77,2.56c2.92-.71,3.07-1.08,3-1.86s-.73-4.22-1.75-9c-.82-3.86-3.07-9.91-5.25-12.83-2-2.72-5.1-1.46-8.93,0-1.9.72-4.38,1.56-7.12,2.74S159.87,250.51,159.87,254.85Z"/><path class="cls-63" d="M174.83,264.58c-1.77-2.8-4.05-9-3.64-13.38,0,0-5.39.93-5.18,7.36S174.83,264.58,174.83,264.58Z"/><path class="cls-53" d="M209.7,95.48c-5.52-6.67-8.14-3.5-9.88-7.94s7.85-12.38.58-15.88c-6.24-3-6.19-8-8.25-12.69-2.11-6.14-3.83-11-12-14.28C171,41,160.48,45.8,159.12,48s-3.56,7.09-3.56,7.09c.54,4.41,2.66,11.35,11,12.26,5.32.58,3.34,3,4.63,6.57,1.06,2.91,3.21,4.55,2,7a12.35,12.35,0,0,1-1.77,4c-2.49,3.84.88,5.44,3.36,6.56s4.58,2.11,3.37,3.51c-3,3.47-7.88,5.68-8.3,9-.75,6.08,6.12,7.57,5.6,9.48-3.58,3.86-6.76,8.2-6.79,10.6-.09,7.75,3.06,8.1.93,10.19-1.46,1.44.91,1.22,3.22-1.71,5.87-5.63,10.06.4,11-6.69,2.65-1.12,5.57-1.41,6.33-5.19.53-2.65-4.84-5.07-.72-7.85,3.64-2.47,10-4.67,7.65-7.75-.49-.66,1.46-1,5.24,1.71s10.82,9.69,10.82,9.69C212.29,112.78,215.23,102.14,209.7,95.48Z"/><path d="M154.54,90.67a14.35,14.35,0,0,0,11.79-.93.29.29,0,0,0-.29-.51,13.79,13.79,0,0,1-11.35.88c-.35-.13-.5.43-.15.56Z"/><path d="M156.54,86.9c-.76-.13-2.34-.54-2-1.59.24-.8.85-1.42,1.15-2.18a22,22,0,0,0,1.27-6.63c0-.37-.56-.37-.58,0a25.78,25.78,0,0,1-.55,4,10.78,10.78,0,0,1-1.14,3.24c-.36.61-1,1.49-.72,2.24.35.94,1.56,1.32,2.44,1.47.37.06.53-.5.16-.56Z"/><path d="M149.54,72.49a1.76,1.76,0,0,1,.56-.56,3.31,3.31,0,0,1,1-.51,2,2,0,0,1,1.14,0,1.76,1.76,0,0,1,1,.86.29.29,0,0,0,.5-.3,2.25,2.25,0,0,0-2.69-1.13,3.91,3.91,0,0,0-1.26.58,2.46,2.46,0,0,0-.76.78c-.18.33.32.62.5.29Z"/><path d="M162.51,72.11c.68-1.24,2-1.39,3.29-1.11a14.67,14.67,0,0,1,4.28,1.9c.32.2.61-.3.29-.5-2.15-1.3-6.62-3.74-8.37-.58a.29.29,0,0,0,.51.29Z"/><path d="M165.42,76.54a1,1,0,0,0-.11.88,1,1,0,0,0,.65.68.31.31,0,0,0,.33-.13,1.67,1.67,0,0,0,.12-1.58.6.6,0,0,0-.35-.33.45.45,0,0,0-.51.2,1.08,1.08,0,0,0-.1.43,2.73,2.73,0,0,0,0,.41,1.79,1.79,0,0,0,.39.85.29.29,0,0,0,.46-.06,1.17,1.17,0,0,0-.06-1.28.31.31,0,0,0-.4-.11.29.29,0,0,0-.1.4l.06.1,0,0c0,.06,0-.06,0,0a.56.56,0,0,1,0,.12.43.43,0,0,1,0,0c0-.07,0,0,0,0a.21.21,0,0,1,0,.11v0s0,0,0,0a.19.19,0,0,1,0,.07l0,.1c0,.07,0,0,0,0a.21.21,0,0,1,0,.06l.46-.06s0,0,0,0a.35.35,0,0,1,0-.08l-.05-.08s0-.11,0,0l-.06-.16a1.29,1.29,0,0,1,0-.19v0s0-.07,0-.1,0-.11,0-.17h0V76.6s0-.09,0,0,0,0,0,0l-.07,0h-.12l0,0c0-.06,0,0,0,0s0,0,0,0v0l0,.09s0,.06,0,.1,0,.08,0,0a.61.61,0,0,1,0,.19v.14s0,0,0,0a.75.75,0,0,1,0,.16l0,.09s0,0,0,0l0,0a.86.86,0,0,1-.1.16l.33-.13s0,0,0,0,0,0,0,0l-.06,0s0,0,0,0l0,0,0-.06,0,0s0,.06,0,0l0-.06,0,0s0,0,0,0,0,0,0,0l0,0s0,0,0-.07a.06.06,0,0,1,0,0s0,.06,0,0V77c0-.05,0,0,0,0v0l0-.07s0,0,0,0v0l0-.08a.29.29,0,0,0-.11-.4.29.29,0,0,0-.39.11Z"/><path d="M151.21,76.54a1,1,0,0,0-.11.88,1,1,0,0,0,.65.68.3.3,0,0,0,.33-.13,1.65,1.65,0,0,0,.12-1.58.6.6,0,0,0-.35-.33.44.44,0,0,0-.5.2.94.94,0,0,0-.1.43,1.85,1.85,0,0,0,0,.41,1.89,1.89,0,0,0,.39.85.29.29,0,0,0,.46-.06,1.17,1.17,0,0,0-.06-1.28.29.29,0,1,0-.5.29l.07.1,0,0c0,.06,0-.06,0,0l0,.12a.43.43,0,0,1,0,0h0v.14s0,0,0,0,0,0,0,.07a.42.42,0,0,1,0,.1c0,.07,0,0,0,0l0,.06.46-.06,0,0a.35.35,0,0,1-.05-.08.56.56,0,0,0-.05-.08s0-.11,0,0a1.42,1.42,0,0,1-.05-.16.43.43,0,0,1,0-.19c0,.07,0,0,0,0v-.27s0,0,0,0V76.6s0-.09,0,0h0l-.06,0h-.11s0,0,0,0l0,0c-.05-.06,0,0,0,0s0,0,0,0l0,0s0,.06,0,.09a.3.3,0,0,1,0,.1s0,.08,0,0a1.21,1.21,0,0,1,0,.19.28.28,0,0,0,0,.09v0h0a1.24,1.24,0,0,0,0,.16l0,.09s0,0,0,0l0,0-.09.16.33-.13s0,0,0,0,0,0,0,0l-.06,0s0,0,0,0l0,0-.06-.06,0,0s0,.06,0,0a.21.21,0,0,1,0-.06l0,0s0,0,0,0,0,0,0,0v0a.14.14,0,0,1,0-.07s0,0,0,0,0,.06,0,0V77c0-.05,0,0,0,0s0,0,0,0a.19.19,0,0,1,0-.07s0,0,0,0,0,0,0,0l0-.08a.29.29,0,1,0-.5-.29Z"/><path d="M139.22,140c-.74,5.9.25,11.81,1.22,17.62,1.12,6.72,2.19,13.46,1.77,20.3,0,.38.56.37.59,0,.39-6.61-.57-13.13-1.66-19.63-1-6-2.1-12.16-1.34-18.29,0-.37-.53-.37-.58,0Z"/><path d="M132.56,168.91a12.5,12.5,0,0,1,4.13,3.07c.25.28.66-.13.42-.41a13,13,0,0,0-4.25-3.17c-.34-.15-.64.35-.3.51Z"/><path d="M193.57,119.41c-3.51,6.24-3.55,13.54-3.26,20.5a98.16,98.16,0,0,1,.1,11.76,28.64,28.64,0,0,1-1,6.1c-.45,1.41-1,2.38-.82,3.91.05.37.63.37.59,0-.2-1.58.5-2.71.91-4.18a29.72,29.72,0,0,0,.89-5.14,83.42,83.42,0,0,0,0-11.51c-.31-7.15-.49-14.71,3.13-21.14.19-.33-.32-.63-.5-.3Z"/><path d="M191,136.75a12.32,12.32,0,0,1,2.81-6.9c.24-.28-.17-.7-.41-.41a13,13,0,0,0-3,7.31c0,.37.55.37.58,0Z"/><path d="M188.2,164.84a9.93,9.93,0,0,1,9.12-1c3.24,1.3,6.06,4.09,8.34,6.67.24.28.65-.13.41-.41a34,34,0,0,0-4.29-4.11,16.71,16.71,0,0,0-4.57-2.81,10.5,10.5,0,0,0-9.3,1.16c-.32.21,0,.71.29.51Z"/><path d="M195.61,166a8.42,8.42,0,0,1,2.86,2.51.31.31,0,0,0,.4.11.29.29,0,0,0,.11-.4,9.22,9.22,0,0,0-3.07-2.72c-.33-.18-.63.32-.3.5Z"/><path d="M159.18,173.14a6.7,6.7,0,0,1,6.89-3.22c2.39.26,4.7,1.06,7.09,1.32,5.65.61,10.39-3.12,15.28-5.3.34-.16.05-.66-.29-.51-2.9,1.3-5.58,3.06-8.55,4.19a14.39,14.39,0,0,1-8.6.67c-2.28-.46-4.64-1.21-7-1a7,7,0,0,0-5.33,3.55c-.2.32.3.61.5.29Z"/><path d="M188.14,164.17c2.34-4.38,7.72-5.09,12.18-5.41.38,0,.38-.61,0-.58-4.67.33-10.23,1.12-12.69,5.7-.17.33.33.62.51.29Z"/><path d="M157.92,110.46a4.52,4.52,0,0,0,1.69,5.57,7.37,7.37,0,0,0,3.09.79,15.55,15.55,0,0,0,3.27.07c.37,0,.37-.63,0-.59a15.19,15.19,0,0,1-2.86,0,8.14,8.14,0,0,1-2.88-.59,3.91,3.91,0,0,1-1.75-5.07c.13-.35-.43-.5-.56-.16Z"/><path d="M168,116.62a11.33,11.33,0,0,0,4.23-1.31l4.5-2.18c.34-.16,0-.66-.29-.5l-4.23,2A11.22,11.22,0,0,1,168,116c-.37,0-.37.6,0,.58Z"/><path d="M157,173.93c3.45,1.27,5.14,5.22,5.5,8.62,0,.37.63.38.59,0-.4-3.68-2.22-7.81-5.93-9.18-.35-.13-.51.43-.16.56Z"/><path d="M158.93,173.08a10.45,10.45,0,0,1,5,8.79.3.3,0,0,0,.59,0,11.08,11.08,0,0,0-5.28-9.3.3.3,0,0,0-.3.51Z"/><path d="M141.05,195c2.81-1.55,4.78-4.16,6.66-6.7.22-.3-.29-.59-.51-.29-1.82,2.45-3.72,5-6.45,6.49-.32.18,0,.68.3.5Z"/><path d="M136.7,201.29c4.2-.36,8.36-1,11.33-4.25a57.8,57.8,0,0,0,4.34-5.54c1.21-1.71,2.43-3.71,1.81-5.88a.29.29,0,0,0-.56.16c.63,2.21-.9,4.25-2.12,5.94a50.53,50.53,0,0,1-4.09,5.13c-2.81,3-6.81,3.52-10.71,3.85-.37,0-.37.62,0,.59Z"/><path d="M141.53,204.47l3.65-.6a24,24,0,0,0,3.26-.6,6.18,6.18,0,0,0,3.54-3.48,111.16,111.16,0,0,0,5.26-12.37c.12-.35-.44-.5-.57-.15a117.62,117.62,0,0,1-5,11.76c-.86,1.76-1.82,3.3-3.85,3.79s-4.33.74-6.48,1.09c-.37.06-.21.62.16.56Z"/><path d="M138.58,187.77l8.69-6.73c.3-.23-.12-.64-.41-.41l-8.69,6.73c-.3.23.12.64.41.41Z"/><path d="M132,198.72a2.24,2.24,0,0,0-.67,1.63,1.5,1.5,0,0,0,.87,1.19,3.86,3.86,0,0,0,1.64.34,5.62,5.62,0,0,0,2-.33c.35-.12.2-.68-.15-.56a4.71,4.71,0,0,1-3,.13,1.1,1.1,0,0,1-.77-.72,1.58,1.58,0,0,1,.49-1.27c.24-.29-.17-.7-.41-.41Z"/><path d="M133.74,202.3a1.5,1.5,0,0,0,.56,1.39,2.67,2.67,0,0,0,1.69.52,27.91,27.91,0,0,0,4.28-.3c.36,0,.37-.63,0-.58a34,34,0,0,1-3.48.28,5,5,0,0,1-1.59-.09c-.46-.14-1-.54-.9-1.07,0-.37-.51-.52-.56-.15Z"/><path d="M130.36,195.77C130,197,132,197.09,132.7,197a11.58,11.58,0,0,0,4-1.91,37.41,37.41,0,0,0,4.15-2.42,43.38,43.38,0,0,0,3.81-3.62.29.29,0,0,0-.41-.42c-1,1-2,2-3.07,3a14.75,14.75,0,0,1-3.27,2.14c-1.08.57-2.11,1.22-3.17,1.83a6.72,6.72,0,0,1-1.81.77c-.3.06-2.23.26-2-.44.11-.35-.46-.51-.57-.15Z"/><path d="M150,181.87a5.29,5.29,0,0,1,.39,2.75.28.28,0,0,0,.29.29.3.3,0,0,0,.29-.29,5.78,5.78,0,0,0-.47-3,.29.29,0,1,0-.5.29Z"/><path d="M152.62,184l.57.7a.31.31,0,0,0,.21.09.31.31,0,0,0,.2-.09.33.33,0,0,0,.09-.21v-.07a.29.29,0,0,0-.08-.13l-.57-.7a.25.25,0,0,0-.2-.09.33.33,0,0,0-.21.09.26.26,0,0,0-.08.2v.08a.33.33,0,0,0,.07.13Z"/><path d="M155.91,186.71l.27.18-.06,0a2,2,0,0,1,.38.39l0-.06,0,0a.26.26,0,0,0,.17.14.31.31,0,0,0,.23,0,.3.3,0,0,0,.13-.18.25.25,0,0,0,0-.22,2.63,2.63,0,0,0-.35-.39,3.11,3.11,0,0,0-.43-.31.31.31,0,0,0-.23,0,.26.26,0,0,0-.17.14.24.24,0,0,0,0,.22.28.28,0,0,0,.13.17Z"/><path d="M144.76,195.6l1,1.63a.29.29,0,0,0,.4.1.28.28,0,0,0,.1-.39l-1-1.64a.29.29,0,0,0-.5.3Z"/><path d="M148.66,201.26l.45,1a.3.3,0,0,0,.18.13.28.28,0,0,0,.22,0,.27.27,0,0,0,.13-.17.36.36,0,0,0,0-.23l-.46-1a.3.3,0,0,0-.18-.13.28.28,0,0,0-.22,0,.27.27,0,0,0-.13.17.31.31,0,0,0,0,.23Z"/><path d="M138.84,190.55l.15.1.07,0s0,0,0,0l0,0,.27.24.24.25a1.34,1.34,0,0,1,.11.14l0,0s0,0,0,0l.06.08a.34.34,0,0,0,.18.13.28.28,0,0,0,.22,0,.3.3,0,0,0,.11-.4,4.57,4.57,0,0,0-1.16-1.12.29.29,0,0,0-.4.11.31.31,0,0,0,.1.4Z"/><path d="M189.86,190.28c3.67.29,7.54.33,11.07-.86a11.75,11.75,0,0,0,7.18-7c2.53-6,1.84-12.8,3.35-19,.09-.37-.47-.52-.56-.16a73.5,73.5,0,0,0-1.34,9.09,39.34,39.34,0,0,1-1.3,8.09c-1.31,3.88-3.46,7.14-7.48,8.5-3.48,1.18-7.3,1.12-10.92.84-.37,0-.37.56,0,.58Z"/><path d="M212.31,115.93a25.23,25.23,0,0,1,2.79,11.26,72.62,72.62,0,0,1-1.09,11.2c-1.08,7.51-2.33,15-2.75,22.59,0,.38.56.38.58,0,.45-8,1.83-16,3-24a58.89,58.89,0,0,0,.85-10.93,25.81,25.81,0,0,0-2.84-10.42c-.17-.33-.67,0-.5.3Z"/><path d="M158,137.52l-3.69,11.93c-.11.36.45.51.56.16l3.69-11.94c.11-.36-.45-.51-.56-.15Z"/><path d="M200.09,208.44l5,.38,2.73.21a2.78,2.78,0,0,0,1.46-.1,1.67,1.67,0,0,0,.67-1.74,16.68,16.68,0,0,0-1.16-4.38,28.64,28.64,0,0,1-.38-17.38.3.3,0,0,0-.57-.16,30.34,30.34,0,0,0-.62,14.51,36.4,36.4,0,0,0,1.23,3.79c.4,1.15,1.17,2.89.92,4.13s-3.5.6-4.51.52l-4.78-.36c-.37,0-.37.55,0,.58Z"/><path class="cls-50" d="M154.09,151.74c-.78,2.94-.93,8.21.31,8.37s2.94-1.71,2.94-1.71,1.24-19.67.77-19.2S154.09,151.74,154.09,151.74Z"/><path class="cls-50" d="M130.54,167.23s6.36,3.6,7.8,6.37c0,0-1.2-6.13-3.48-7.09C133.07,165.76,130.54,167.23,130.54,167.23Z"/><path d="M160.3,258.55a9.7,9.7,0,0,0,3.69,5.68c2.35,1.73,5.12,1.88,7.93,1.92a14.86,14.86,0,0,1,5.18.71c1.41.56,2.61,1.51,4,2.13,2.76,1.24,5.22-.2,7.89-1a.29.29,0,0,0-.16-.56c-1.27.38-2.49.93-3.78,1.27a5.68,5.68,0,0,1-4.54-.66,29.76,29.76,0,0,0-3.19-1.73,12,12,0,0,0-3.65-.69c-2.81-.16-5.76.18-8.33-1.23a9.07,9.07,0,0,1-4.47-6c-.08-.36-.64-.21-.56.16Z"/><path d="M183,248.24a28.71,28.71,0,0,1,3.48,8.18c.86,3.05,1.58,6.15,2.35,9.22a.29.29,0,0,0,.56-.15c-1.47-5.89-2.48-12.38-5.88-17.54-.21-.31-.71,0-.51.29Z"/><path d="M191.48,266.58c.93-2.25,0-4.86-.38-7.13a73.74,73.74,0,0,0-2.26-9,56.32,56.32,0,0,0-3.1-8c-.8-1.59-2.72-3.14-4.36-1.63-.28.26.14.67.41.42,2.57-2.37,4.45,3.79,5,5.24.85,2.19,1.6,4.41,2.23,6.67s1.15,4.64,1.59,7c.38,2.05,1.14,4.33.3,6.36-.14.35.42.5.56.16Z"/><path d="M160.29,254.12c.3-3.62,3.6-5.77,6.71-6.92a49.57,49.57,0,0,1,10.49-2.81c.37,0,.21-.62-.16-.56a40.2,40.2,0,0,0-6.12,1.41,49.43,49.43,0,0,0-5.58,1.88c-2.93,1.28-5.64,3.62-5.93,7,0,.37.55.37.59,0Z"/><path d="M179.39,244.31a5.66,5.66,0,0,1,2.28,1.86.3.3,0,0,0,.51-.3,6.38,6.38,0,0,0-2.49-2.06.29.29,0,1,0-.3.5Z"/><path d="M175.59,243.53l.87-.62a.29.29,0,0,0,.14-.17.31.31,0,0,0,0-.23.29.29,0,0,0-.4-.1l-.88.62a.31.31,0,0,0-.13.17.31.31,0,0,0,0,.23.29.29,0,0,0,.4.1Z"/><path d="M171,254a22.29,22.29,0,0,0,1,4.93c.12.36.68.21.56-.15a21.07,21.07,0,0,1-1-4.78c0-.37-.62-.37-.59,0Z"/><path d="M48.13,254.29c-1.59,3.77,1.9,6.74,5,8.07,4,1.7,8.33,1.67,12.61,1.47a81,81,0,0,1,15.09.47c2.4.34,4.74,1,7.13,1.33a6.4,6.4,0,0,0,5-.82c.3-.21,0-.72-.29-.5-1.81,1.31-4,.9-6.06.46s-4-.82-6-1.09a70.77,70.77,0,0,0-12.6-.53c-3.86.16-7.8.52-11.6-.37-3.59-.83-9.62-3.62-7.64-8.34.15-.34-.42-.49-.56-.15Z"/><path d="M88.65,263.87c-2.31-1.26-2.74-4.11-2.12-6.45A23.32,23.32,0,0,1,88,253.61c.54-1.17,1-2.48,2.18-3.18a11.4,11.4,0,0,1,3.55-1,10.94,10.94,0,0,0,3.12-1.19c2.17-1.21,4-2.88,6.25-4,.34-.17,0-.67-.29-.5-2.52,1.32-4.62,3.36-7.23,4.53-2.35,1.05-5.58.63-7.09,3.09a24,24,0,0,0-1.65,3.52,14.53,14.53,0,0,0-1.11,3.8,5.75,5.75,0,0,0,2.66,5.75c.33.18.62-.33.29-.51Z"/><path d="M49.06,253.6a9.64,9.64,0,0,1,5.51-4.19c6-2.11,12.88-2.14,19.19-2.2a.29.29,0,0,0,0-.58c-6.45.06-13.54.06-19.68,2.34a10,10,0,0,0-5.52,4.33.29.29,0,0,0,.5.3Z"/><path d="M78.53,247.42c.9,0,1.75-.23,2.64-.24a18.26,18.26,0,0,1,2,.14c2,.18,3.9.38,5.85.39a14.3,14.3,0,0,0,5.73-.93,17.73,17.73,0,0,0,2.17-1.11,3.51,3.51,0,0,1,1.6-.69c.38,0,.38-.57,0-.58-1.07,0-2.23,1-3.14,1.45A13.51,13.51,0,0,1,89,247.12c-1.91,0-3.82-.19-5.73-.37-.66-.06-1.34-.15-2-.15-.91,0-1.79.26-2.71.24-.38,0-.38.57,0,.58Z"/><path d="M69.32,258.73a10.61,10.61,0,0,0,.7-2.52.3.3,0,0,0-.21-.36.28.28,0,0,0-.35.2,10.56,10.56,0,0,1-.7,2.53.29.29,0,1,0,.56.15Z"/><path d="M106.24,241.8c8.07-8.52,16.68-16.49,24.53-25.24q4.88-5.43,9.51-11.08c.23-.29-.18-.7-.42-.41a408.76,408.76,0,0,1-28.12,30.3c-2,2-4,4-5.92,6-.25.27.16.69.42.41Z"/><path d="M109.44,257.89c10.18-5.36,20.71-10,30.84-15.49a65.91,65.91,0,0,0,6.45-3.78c.31-.21,0-.71-.29-.5a115.39,115.39,0,0,1-13.39,7.38c-5.71,2.9-11.47,5.7-17.21,8.52-2.24,1.11-4.49,2.2-6.7,3.37-.33.17,0,.68.3.5Z"/><path d="M153.29,234a156.42,156.42,0,0,0,24.06-17.23c.29-.25-.13-.66-.41-.42A156.06,156.06,0,0,1,153,233.51c-.33.18,0,.69.29.5Z"/><path d="M181.23,212.67a70.73,70.73,0,0,0,8.52-11.26c.19-.32-.31-.61-.51-.29a68.6,68.6,0,0,1-8.42,11.14c-.26.27.16.69.41.41Z"/><path d="M173.55,220.12q8.76-4.77,17-10.32c.31-.21,0-.72-.3-.51q-8.26,5.57-17,10.32c-.33.18,0,.69.29.51Z"/><path d="M175.19,221.7a19.29,19.29,0,0,0,7.84-3c.31-.2,0-.71-.29-.5a19.13,19.13,0,0,1-7.71,2.93c-.37.05-.21.61.16.56Z"/><path d="M114.88,229.6a31.5,31.5,0,0,0,9.37,9.82,58.4,58.4,0,0,0,6.26,3.31,17,17,0,0,0,6.46,1.85c.38,0,.38-.57,0-.58a17.49,17.49,0,0,1-6.7-2,59.29,59.29,0,0,1-5.73-3.05,30.87,30.87,0,0,1-9.15-9.61c-.21-.32-.71,0-.51.29Z"/><path d="M120.22,230.94a18,18,0,0,0,6.38,5.62c.33.17.62-.33.29-.5a17.46,17.46,0,0,1-6.17-5.41c-.22-.3-.72,0-.5.29Z"/><path d="M130.65,239.78c3,1.28,6,2.47,9.12,3.55.36.13.51-.43.16-.56q-4.55-1.61-9-3.49c-.34-.14-.64.36-.3.5Z"/><path d="M88.93,263.73a32.47,32.47,0,0,0,12.23.44,12,12,0,0,0,5.08-1.78,9.33,9.33,0,0,0,3.08-3.92c.15-.34-.35-.64-.51-.3a8.61,8.61,0,0,1-3.28,4,13.14,13.14,0,0,1-5,1.52,32.08,32.08,0,0,1-11.43-.51c-.36-.09-.52.48-.15.56Z"/><path d="M127.82,219.08a121.92,121.92,0,0,0-22.42-14.54c-.33-.16-.63.34-.29.51a120.9,120.9,0,0,1,22.3,14.45c.29.23.7-.18.41-.42Z"/><path d="M128.48,248.82q11.1,4.73,22.49,8.71c.35.13.5-.43.15-.56q-11.31-4-22.35-8.65c-.34-.15-.63.36-.29.5Z"/><path d="M154.31,259.72c2.83,2.08,5.9,4.21,9.52,4.38.38,0,.38-.57,0-.59-3.51-.16-6.49-2.28-9.23-4.29-.3-.22-.59.28-.29.5Z"/><path d="M147.56,238.8q7.4,5.16,15.24,9.61a.29.29,0,0,0,.29-.5q-7.83-4.44-15.23-9.61c-.31-.22-.6.29-.3.5Z"/><path d="M70.37,206.86a11.94,11.94,0,0,0,.94,9.48c1.78,3.11,4.71,5.53,7.49,7.71,5,3.88,9.91,7.57,15.64,10.27.33.16.63-.34.29-.5a80.06,80.06,0,0,1-14.12-9.11c-2.88-2.18-5.9-4.5-8-7.46A11.45,11.45,0,0,1,70.94,207c.11-.35-.45-.51-.57-.15Z"/><path d="M96.74,235.29a78.17,78.17,0,0,0,10.7,4.79c.36.11.51-.45.15-.57A76.1,76.1,0,0,1,97,234.79c-.33-.17-.63.33-.29.5Z"/><path d="M73.41,203A80.59,80.59,0,0,0,84,203q7.32-.17,14.64-.46c1.58-.06,3.15-.11,4.73-.21.37,0,.37-.61,0-.59-8.41.56-16.88.71-25.3.77a39.37,39.37,0,0,1-4.61-.09c-.37,0-.37.54,0,.59Z"/><path d="M105.46,202.09c3.15-.32,6.39-.25,9.56-.31,4.42-.08,8.84-.14,13.27-.15,1.34,0,2.69,0,4,0,.37,0,.37-.56,0-.58-3.1-.19-6.24,0-9.34,0-4.45,0-8.89.11-13.34.24-1.39,0-2.8.05-4.18.19-.37,0-.38.62,0,.58Z"/><path d="M55.66,155.16c-.43,1.75.42,3.5,1,5.14s1.25,3.58,1.88,5.37c.69,1.94,1.39,3.88,2.12,5.8a27.8,27.8,0,0,0,1.51,3.61c.18.33.68,0,.5-.3a27,27,0,0,1-1.48-3.56c-.7-1.82-1.36-3.65-2-5.49s-1.21-3.42-1.8-5.13-1.57-3.59-1.15-5.29a.29.29,0,0,0-.56-.15Z"/><path d="M62.75,176.64a21.17,21.17,0,0,1,1.13,2.64c.79,1.89,1.56,3.78,2.33,5.67q2.6,6.38,5.15,12.75c.43,1.07.88,2.14,1.29,3.22.13.34.7.19.56-.16-2.72-7.13-5.68-14.19-8.6-21.24a25.41,25.41,0,0,0-1.36-3.17.29.29,0,0,0-.5.29Z"/><path d="M58.87,153.6a7.91,7.91,0,0,1,1.66-.17l4.19-.34q6.6-.51,13.21-1c9.86-.73,19.72-1.43,29.58-2.19,1.67-.12,3.34-.25,5-.4a9,9,0,0,0,2-.21c.35-.12.2-.68-.16-.56a7.91,7.91,0,0,1-1.66.17c-1.39.13-2.79.23-4.19.34-4.4.35-8.8.67-13.21,1-9.86.73-19.73,1.43-29.58,2.19-1.67.13-3.34.25-5,.4a9,9,0,0,0-2,.21c-.35.12-.2.68.16.56Z"/><path d="M117.09,150.6a19.85,19.85,0,0,1,1.2,3q1.09,3,2.14,6c1.57,4.44,3.11,8.89,4.58,13.36a31.37,31.37,0,0,1,1.15,3.68c.08.37.64.21.57-.15a78.56,78.56,0,0,0-3-9.17c-1.53-4.48-3.08-9-4.72-13.4a22,22,0,0,0-1.41-3.56.29.29,0,0,0-.51.29Z"/><path d="M127.28,179.54c1.48,4.61,3.06,9.18,4.54,13.8.11.35.68.2.56-.16-1.48-4.61-3.06-9.19-4.53-13.8-.12-.35-.68-.2-.57.16Z"/><path d="M121.61,152.44c1.9,4.84,3.51,9.8,5.19,14.71,2.07,6,4.11,12.11,6.17,18.17.53,1.56,1,3.14,1.62,4.68.13.35.7.2.56-.15-1.49-3.89-2.7-7.9-4-11.83-2.15-6.33-4.29-12.66-6.49-19-.79-2.26-1.57-4.53-2.45-6.76-.13-.35-.69-.2-.56.15Z"/><path d="M177.55,181.46a87,87,0,0,1,28,40.34,85,85,0,0,1,3.29,13.6c.06.37.62.22.56-.15a87.55,87.55,0,0,0-21.12-44.44A86.33,86.33,0,0,0,178,181.05c-.29-.23-.71.18-.42.41Z"/><rect class="cls-30" x="100.89" y="127.2" width="40.73" height="13.9" rx="3.84"/><text class="cls-64" transform="translate(117.86 137.28)">200</text><polygon class="cls-30" points="118.83 140.31 123.99 140.31 121.34 145.47 118.83 140.31"/><circle class="cls-24" cx="110.27" cy="133.91" r="4.21"/><path class="cls-24" d="M112.31,137.3a8.4,8.4,0,0,0,3.75.24l-3.19-2Z"/><path d="M119.16,140.85H104.34a.15.15,0,0,0,0,.3h14.82a.15.15,0,0,0,0-.3Z"/><path d="M102.21,139.83c-1.46-1-1.34-3-1.27-4.55l.1-2.49.06-1.24a2.43,2.43,0,0,1,.25-1.41c.12-.15-.08-.36-.2-.21-.49.6-.35,1.57-.38,2.29,0,1.09-.09,2.17-.13,3.25-.07,1.65-.08,3.56,1.42,4.61.15.11.3-.14.15-.25Z"/><path d="M102,128.73c1.2-1.81,3.41-1.45,5.3-1.45h7.64l18.11,0h5.09a.15.15,0,0,0,0-.3q-15.54,0-31.06,0c-2,0-4.07-.31-5.34,1.6-.1.15.15.3.26.14Z"/><path d="M139.23,127.65a3.51,3.51,0,0,1,1.6,1.32,5.36,5.36,0,0,1,.4,1.29c.06.3.1.87.14,1.26a38,38,0,0,1,.25,6c0,.19.28.18.29,0a37.94,37.94,0,0,0-.28-6.39,9.47,9.47,0,0,0-.19-1.3,3.84,3.84,0,0,0-.55-1.34,4.42,4.42,0,0,0-1.51-1.12c-.17-.09-.31.16-.15.25Z"/><path d="M125.55,141.15h10.6a.15.15,0,0,0,0-.3h-10.6a.15.15,0,0,0,0,.3Z"/><path d="M138.44,141.19a4.16,4.16,0,0,0,3.19-2.75c.06-.18-.22-.26-.28-.08a3.88,3.88,0,0,1-3,2.54c-.19,0-.11.32.08.29Z"/><path d="M119.34,141.69l1.77,3.75a.15.15,0,0,0,.25,0l1.44-2.61a.15.15,0,0,0-.26-.15l-1.43,2.61h.25l-1.77-3.74c-.08-.18-.34,0-.25.14Z"/><path d="M123.51,141.22a.15.15,0,0,0,0-.3.15.15,0,0,0,0,.3Z"/><path class="cls-65" d="M205.92,182.77s-3.69-20.43,1.21-23.69,12.05-1.28,15.51,4.72c4.27,7.39,6.28,19,6.28,19"/><path class="cls-65" d="M216.38,180.81s-3.69-20.43,1.21-23.69,11.68.1,14,3.83c4.58,7.19,7.74,19.92,7.74,19.92"/><path class="cls-27" d="M253.66,181.59l5,79.15-50.52,5.61s-1.12-87,0-87.56S253.66,181.59,253.66,181.59Z"/><path class="cls-31" d="M198.09,179.35c-.28.56-5.89,79.42-5.89,79.42l16,7.58V178.79l-4.77,3.08Z"/><polygon class="cls-66" points="192.2 258.77 208.19 266.35 200.06 248.95 192.2 258.77"/><line class="cls-67" x1="199.51" y1="253.02" x2="202.64" y2="182.04"/><path d="M208.11,265.87c.27-11.7.21-23.42.32-35.13,0-2.16,0-4.33.08-6.5a.3.3,0,0,0-.59,0c-.26,11.7-.2,23.42-.31,35.13,0,2.16,0,4.33-.08,6.5a.29.29,0,0,0,.58,0Z"/><path d="M208.18,220.74a201.89,201.89,0,0,0,.28-22.14c0-.38-.6-.38-.58,0a201.89,201.89,0,0,1-.28,22.14c0,.38.55.38.58,0Z"/><path d="M208.59,195.11c-.31-5.39.23-10.8-.08-16.19,0-.38-.61-.38-.59,0,.32,5.39-.22,10.8.09,16.19,0,.38.61.38.58,0Z"/><path d="M200.14,249.87c-.1-2.66,0-5.33.08-8,.12-4.76.28-9.51.45-14.27.37-10.4.79-20.81,1.37-31.21.18-3.19.25-6.45.71-9.61.06-.37-.5-.53-.56-.16-.39,2.62-.47,5.31-.63,8-.28,4.73-.5,9.47-.72,14.21-.47,10.48-.88,21-1.16,31.46-.08,3.2-.25,6.42-.12,9.62a.29.29,0,0,0,.58,0Z"/><path d="M192.1,258.08c.42-6.52,1.08-13,1.79-19.49,0-.37-.54-.37-.58,0-.71,6.49-1.37,13-1.79,19.49,0,.37.56.37.58,0Z"/><path d="M194.12,234.29c.8-14.78,2.56-29.52,3.8-44.27.28-3.35.56-6.71.74-10.08,0-.37-.56-.37-.58,0-.8,14.78-2.56,29.52-3.8,44.26-.28,3.36-.56,6.72-.74,10.09,0,.37.56.37.58,0Z"/><path d="M195.35,260.79a120.94,120.94,0,0,0,11.76,5.37c.35.13.5-.43.15-.57a115.67,115.67,0,0,1-11.61-5.31c-.33-.17-.63.33-.3.51Z"/><path d="M253.53,181.81c.77,10.05,1.38,20.12,2,30.18.11,1.91.24,3.83.32,5.74,0,.38.6.38.58,0-.42-10-1.21-20-1.89-30-.13-2-.26-4-.41-5.94,0-.37-.62-.37-.59,0Z"/><path d="M256.58,231.56l1.89,28.82c0,.37.61.37.58,0l-1.89-28.82c0-.37-.61-.37-.58,0Z"/><path d="M209.72,266.23a26.88,26.88,0,0,1,5.06-.67c3.53-.4,7.07-.77,10.61-1.13,7.72-.8,15.45-1.57,23.17-2.42a31.79,31.79,0,0,0,5.92-.78c.35-.11.2-.67-.16-.56a26.67,26.67,0,0,1-5.06.67c-3.53.4-7.07.77-10.61,1.14-7.72.8-15.45,1.56-23.16,2.42a31.67,31.67,0,0,0-5.92.77c-.36.11-.21.67.15.56Z"/><path d="M209.1,179.18a29.6,29.6,0,0,0,4.09.37c2.73.18,5.47.33,8.2.47q9.18.48,18.37.84c1.7.06,3.44.19,5.15.13.38,0,.38-.6,0-.59-4.1.16-8.28-.24-12.37-.42-6-.27-12.09-.55-18.13-.93a38.47,38.47,0,0,1-5.15-.43c-.37-.07-.53.49-.16.56Z"/><path d="M248,181.75a8.68,8.68,0,0,1,2.87-.27.29.29,0,1,0,0-.58,9.38,9.38,0,0,0-3,.29.29.29,0,0,0,.16.56Z"/><rect class="cls-68" x="233.23" y="209.73" width="38.74" height="55.17" rx="2.18" transform="translate(-42.27 55.17) rotate(-11.51)"/><rect class="cls-28" x="234.47" y="207.86" width="38.74" height="55.17" rx="2.01" transform="translate(-41.88 55.38) rotate(-11.51)"/><rect class="cls-41" x="237.31" y="210.77" width="33.52" height="48.21" rx="1.63" transform="translate(-41.76 55.42) rotate(-11.51)"/><path class="cls-69" d="M241.39,213.36c1.7.85,16.34-2.32,16.58-3.83.15-1-3.14-2.82-3.14-2.82l-3.13-.94s2.59-3.43,1.53-4.61c-2.26-2.53-9.71-.71-10.64,2.17-.48,1.47,1.2,3,2.77,3.86l-2.68,2.3S240.5,212.92,241.39,213.36Z"/><path class="cls-29" d="M241.25,239.17l1.41,2.2a.82.82,0,0,0,1.27.16q2.34-2.92,4.47-6a.82.82,0,0,0-.29-1.11.83.83,0,0,0-1.11.29c-1.34,1.94-2.74,3.84-4.22,5.68l1.27.16-1.4-2.19a.81.81,0,0,0-1.4.81Z"/><path class="cls-29" d="M238.35,226.18l1.4,2.19a.82.82,0,0,0,1.27.17c1.56-1.95,3.06-3.95,4.48-6a.81.81,0,0,0-1.4-.82c-1.34,1.94-2.75,3.84-4.22,5.68l1.27.16-1.4-2.19a.83.83,0,0,0-1.11-.29.82.82,0,0,0-.29,1.11Z"/><path class="cls-29" d="M244.16,252.32l1.4,2.19a.81.81,0,0,0,1.27.17c1.56-2,3.06-4,4.47-6a.8.8,0,0,0-.29-1.1.81.81,0,0,0-1.1.29q-2,2.91-4.22,5.67l1.27.17-1.4-2.19a.83.83,0,0,0-1.11-.29.8.8,0,0,0-.29,1.1Z"/><path class="cls-70" d="M248.48,222.34c2.88-.58,5.77-1.15,8.65-1.76a50.72,50.72,0,0,0,6.43-1.59c.25-.09.14-.5-.11-.41a48.83,48.83,0,0,1-6.44,1.59c-2.87.61-5.76,1.18-8.64,1.76-.27.06-.16.46.11.41Z"/><path class="cls-70" d="M248.89,224.38c2.88-.58,5.77-1.15,8.64-1.76A50.46,50.46,0,0,0,264,221c.25-.09.14-.5-.11-.41a48.83,48.83,0,0,1-6.44,1.59c-2.88.61-5.76,1.18-8.65,1.77-.26.05-.15.45.12.4Z"/><path class="cls-70" d="M251.33,234.38c2.89-.58,5.77-1.15,8.65-1.76a50.46,50.46,0,0,0,6.44-1.59c.25-.09.14-.5-.12-.41a50.72,50.72,0,0,1-6.43,1.59c-2.88.61-5.76,1.18-8.65,1.76-.26.06-.15.46.11.41Z"/><path class="cls-70" d="M251.74,236.42c2.89-.58,5.77-1.15,8.65-1.76a50.72,50.72,0,0,0,6.43-1.59c.26-.09.15-.5-.11-.41a50.72,50.72,0,0,1-6.43,1.59c-2.88.61-5.77,1.18-8.65,1.76-.27.06-.15.46.11.41Z"/><path class="cls-70" d="M254,247.64c2.88-.58,5.77-1.15,8.64-1.76a50.46,50.46,0,0,0,6.44-1.59c.25-.09.14-.5-.11-.4a50.42,50.42,0,0,1-6.44,1.58c-2.87.62-5.76,1.18-8.65,1.77-.26,0-.15.46.12.4Z"/><path class="cls-70" d="M254.39,249.68c2.89-.58,5.78-1.15,8.65-1.76a50.46,50.46,0,0,0,6.44-1.59c.25-.09.14-.49-.12-.4a50.27,50.27,0,0,1-6.43,1.58c-2.88.62-5.76,1.18-8.65,1.77-.26.05-.15.46.11.4Z"/><path d="M240.6,264.93a12.68,12.68,0,0,1-.78-2.87c-.46-1.91-.88-3.84-1.3-5.76-.91-4.2-1.79-8.42-2.64-12.63-.23-1.14-.5-2.29-.66-3.45,0-.26-.44-.15-.4.11.4,2.91,1.13,5.81,1.73,8.68.88,4.28,1.78,8.56,2.78,12.81a14.16,14.16,0,0,0,.91,3.33c.12.24.49,0,.36-.22Z"/><path d="M234.51,236.72c-1.38-6.38-2.62-12.8-3.94-19.2-.22-1.11-.44-2.22-.68-3.32-.06-.27-.47-.16-.41.11,1.38,6.38,2.63,12.8,3.94,19.2.23,1.11.45,2.22.69,3.32.06.27.46.16.4-.11Z"/><path d="M278,256.87c-.81-3.26-1.41-6.58-2.09-9.87q-1.8-8.62-3.52-17.27c-.55-2.74-1.09-5.49-1.6-8.25-.05-.26-.46-.15-.41.12,2,10.48,4.14,20.93,6.34,31.37.28,1.34.54,2.68.87,4,.06.26.47.15.41-.11Z"/><path d="M270.4,218.9q-1-6.24-2.51-12.38a.21.21,0,0,0-.41.11Q269,212.77,270,219c.05.26.45.15.41-.11Z"/><path d="M242,213.07c-.41-.23-.49-.5-.26-.82l.21-.36.45-.79c.28-.49.57-1,.87-1.45a6.21,6.21,0,0,1,2.22-2.51.22.22,0,0,0,0-.37,11.56,11.56,0,0,1-2.1-1.35,2.4,2.4,0,0,1-.56-1.48c-.13-1.55,1.54-2.36,2.73-2.88.25-.1,0-.47-.21-.36-1.34.59-3.08,1.52-2.94,3.24a3.06,3.06,0,0,0,.49,1.56,8.94,8.94,0,0,0,2.38,1.64v-.37c-1.48.75-2.33,2.56-3.13,3.93-.34.57-1.08,1.44-1,2.17a.72.72,0,0,0,.95.61c.25-.09.14-.5-.12-.41Z"/><path d="M248.42,200.42a18.15,18.15,0,0,1,2.66.05,3.22,3.22,0,0,1,1.79.59c.72.64.22,1.63-.12,2.31a15.65,15.65,0,0,1-1.05,1.51c-.22.35-.39.92.14,1.08.25.07.56,0,.82.08a6,6,0,0,1,1,.31,11.59,11.59,0,0,1,3.68,2.59c.2.19.49-.1.3-.29a13.43,13.43,0,0,0-2.73-2.14,7.75,7.75,0,0,0-1.52-.7,4.57,4.57,0,0,0-.83-.2l-.3,0c-.2,0-.41,0-.34-.25s.6-.82.85-1.16a5.94,5.94,0,0,0,.75-1.54,1.72,1.72,0,0,0-1-2.25,10.12,10.12,0,0,0-4.1-.37c-.27,0-.27.43,0,.42Z"/><path d="M247.3,213.21a40.09,40.09,0,0,0,9.9-2.79c.25-.11,0-.47-.21-.37a39.91,39.91,0,0,1-9.81,2.76c-.26,0-.15.44.12.4Z"/><path d="M247,202.55a.83.83,0,0,0,.41.63,1,1,0,0,0,.71.12.77.77,0,0,0,.55-.51.93.93,0,0,0-.08-.71.85.85,0,0,0-.67-.47.24.24,0,0,0-.22.21.21.21,0,0,0,.22.21s0,0,0,0h0l.06,0s0,0,0,0l0,0,.06,0,0,0s0,0,0,0,0,0,0,0a.1.1,0,0,1,0,.05s0,0,0,0l0,0,0,.06v0s0,0,0,0,0,0,0,.06a.14.14,0,0,1,0,.07v0s0,0,0,0,0,0,0,.06v.1c0-.06,0,0,0,0a.13.13,0,0,1,0,.06v0s0,0,0,0,0,0,0,.06v0s0,0,0,0l-.05,0,0,0s0,0,0,0l-.06,0H248s0,0,0,0a.65.65,0,0,0-.14,0h0c.06,0,0,0,0,0l-.06,0-.06,0h0s0,0,0,0-.08-.06-.13-.08,0,0,0,0l0,0-.05-.05s0,0,0,0,0,0,0,0l0-.06s0,0,0,0l0,0v0c0-.06,0,0,0,0a.21.21,0,0,0-.42,0Z"/><path d="M243,266a14.72,14.72,0,0,0,2.54-.39l5.37-1q6.19-1.17,12.37-2.4c1.06-.21,2.14-.38,3.19-.66a.21.21,0,1,0-.11-.4c-2.6.68-5.31,1.08-7.95,1.59-4.05.79-8.11,1.58-12.17,2.31a18.85,18.85,0,0,1-3.24.52.21.21,0,1,0,0,.42Z"/><path d="M269.19,260.86A11.57,11.57,0,0,1,273,260a16.06,16.06,0,0,0,3.83-.76c.25-.1.14-.51-.11-.41a16.38,16.38,0,0,1-3.94.78,11.67,11.67,0,0,0-3.82.91c-.24.12,0,.49.22.36Z"/><path d="M243.56,261c-1.51.58-2.22-4.21-2.39-5-.54-2.39-1-4.79-1.49-7.19-.78-4-1.65-8-2.11-12,0-.27-.45-.27-.42,0,.51,4.47,1.49,8.93,2.37,13.34.49,2.51,1,5,1.61,7.49.28,1.15.74,4.4,2.54,3.72.25-.1.14-.51-.11-.41Z"/><path d="M236.6,232.08A60.9,60.9,0,0,0,234.86,222c-.41-1.68-.86-3.36-1.29-5-.15-.55-.43-1.25,0-1.79a2.28,2.28,0,0,1,.79-.58,3.67,3.67,0,0,1,1.88-.49c.27,0,.27-.39,0-.42a4,4,0,0,0-3,1.19,1.6,1.6,0,0,0-.27,1.39c.21,1.06.55,2.11.82,3.16a70.33,70.33,0,0,1,2.41,12.69c0,.27.44.27.42,0Z"/><path d="M238.38,213.52a6,6,0,0,1,2.62-.76c.27,0,.27-.43,0-.42a6.43,6.43,0,0,0-2.83.82.21.21,0,0,0,.21.36Z"/><path d="M230.52,212.84a8.52,8.52,0,0,1,2.44-.94c1.21-.35,2.43-.64,3.66-.92,2.07-.45,4.16-.88,6.26-1.19.27,0,.15-.45-.11-.41-2.15.32-4.29.76-6.41,1.23-1.24.28-2.48.57-3.7.93a8.87,8.87,0,0,0-2.35.93c-.23.15,0,.52.21.37Z"/><path d="M255.06,207c1.93-.4,3.89-.69,5.83-1,1.22-.19,2.45-.37,3.68-.52a13.16,13.16,0,0,1,2.26-.17c.27,0,.27-.4,0-.42a14.59,14.59,0,0,0-2.38.18c-1.18.15-2.36.32-3.53.5-2,.3-4,.6-6,1-.27.06-.15.46.11.41Z"/><path d="M228.23,215.86c.82,3.15,1.38,6.39,2,9.57q1.89,9.16,3.7,18.33c.68,3.49,1.36,7,2,10.49.05.26.45.15.4-.12-2.15-11.54-4.48-23.06-6.91-34.56-.27-1.27-.51-2.56-.83-3.82a.21.21,0,0,0-.41.11Z"/><path d="M236.1,255.47l1.9,9.42.24,1.18a2.66,2.66,0,0,0,.18.8,1.07,1.07,0,0,0,.55.35,18.7,18.7,0,0,1,2.26.58c.24.13.45-.24.21-.36a8.78,8.78,0,0,0-1.91-.49,4.83,4.83,0,0,1-.5-.16c-.26-.11-.25-.19-.31-.48l-.45-2.24-1.76-8.71c-.06-.26-.46-.15-.41.11Z"/><path d="M242.64,267.65a15.65,15.65,0,0,0,3-.52c2.25-.44,4.48-.89,6.72-1.35q7.53-1.53,15-3.11c1.27-.27,2.55-.51,3.81-.82.26-.06.15-.47-.11-.4-8.14,1.95-16.41,3.48-24.62,5.09a19.57,19.57,0,0,1-3.85.69.21.21,0,1,0,0,.42Z"/><path d="M258.58,209.43a5.32,5.32,0,0,1,1.1-.32c.57-.13,1.14-.24,1.71-.35.95-.17,1.91-.36,2.88-.44.26,0,.27-.45,0-.42-1,.09-2,.27-3,.46-.59.1-1.18.22-1.76.36a5.1,5.1,0,0,0-1.15.35c-.24.12,0,.48.21.36Z"/><path d="M265.7,210.08a36.77,36.77,0,0,1,.86,3.77c.43,2,.84,4.09,1.25,6.14s.77,4,1.2,6l4.27,19.85,1.47,6.83c.05.26.46.15.4-.12-2.24-10.41-4.57-20.8-6.64-31.25-.46-2.3-.92-4.59-1.4-6.89a40.29,40.29,0,0,0-1-4.48c-.08-.26-.49-.15-.4.11Z"/><path d="M256.12,259.36A7.56,7.56,0,0,0,258,259l4.12-.84c3.09-.65,6.17-1.32,9.26-2,.8-.17,1.61-.36,2.41-.52.27-.05.16-.45-.11-.4-5.06,1-10.08,2.2-15.13,3.22a10.17,10.17,0,0,1-2.43.43c-.27,0-.27.41,0,.42Z"/><rect class="cls-30" x="73.74" y="109.86" width="32.97" height="11.39" rx="3.13"/><path class="cls-24" d="M81.46,118.43c-4.64-2.31-4-4.78-2.9-5.38,1.57-.88,2.89,1.06,2.89,1.06s1.68-2.27,3-.79C86.53,115.73,81.46,118.43,81.46,118.43Z"/><text class="cls-71" transform="translate(87.49 118.11)">100</text><polygon class="cls-30" points="87.99 120.58 92.22 120.58 90.05 124.81 87.99 120.58"/><path d="M87.9,120.9H76.8a3.12,3.12,0,0,1-.91-.12,2.81,2.81,0,0,1-1.4-.86,3.81,3.81,0,0,1-.59-2.62V113a.16.16,0,0,0-.32,0c0,1.71,0,3.43,0,5.14A3,3,0,0,0,75.43,121c1.28.52,2.81.27,4.15.27H87.9a.17.17,0,0,0,0-.33Z"/><path d="M77.36,110.22h25.51c2,0,3.63.89,3.68,3.13,0,1.59,0,3.18,0,4.78a.17.17,0,0,0,.33,0c0-1.69.06-3.39,0-5.08a3.25,3.25,0,0,0-3-3.13,42.46,42.46,0,0,0-5.17,0H77.36a.16.16,0,0,0,0,.32Z"/><path d="M102.14,121.41h2.68a.16.16,0,0,0,0-.32h-2.68a.16.16,0,0,0,0,.32Z"/><path d="M88.52,122.05a17.26,17.26,0,0,0,1.35,2.89.16.16,0,0,0,.28,0l1.63-3a2.32,2.32,0,0,1,.29-.54c.08-.06.06,0,.27,0a10.09,10.09,0,0,0,1.1,0h4.63a.16.16,0,0,0,0-.32H92a.15.15,0,0,0-.14.08l-2,3.61h.28A18.1,18.1,0,0,1,88.83,122c-.07-.19-.38-.11-.31.09Z"/><path class="cls-30" d="M247.25,263l-28,7.43a1.87,1.87,0,0,1-2.29-1.33l-.15-.54a1.89,1.89,0,0,1,.67-2,3.82,3.82,0,0,0-1.88-6.86,1.82,1.82,0,0,1-1.49-1.36l-.15-.56a1.89,1.89,0,0,1,1.34-2.3l28-7.42a1.87,1.87,0,0,1,2.29,1.33l.11.41a1.93,1.93,0,0,1-1,2.15,3.68,3.68,0,0,0,1.9,6.94,1.81,1.81,0,0,1,1.82,1.31l.12.47A1.87,1.87,0,0,1,247.25,263Z"/><text class="cls-72" transform="matrix(0.97, -0.26, 0.26, 0.97, 234.92, 261.27)">%</text><text class="cls-72" transform="matrix(0.97, -0.26, 0.26, 0.97, 221.25, 265.14)">Off</text><path d="M213.31,256.32l1,3.56a.21.21,0,0,0,.4-.11l-1-3.57a.21.21,0,0,0-.4.12Z"/><path d="M216.49,269.11c.16.6.34,1.2.54,1.79a.22.22,0,0,0,.26.15l24.7-6.48,3.55-.93c.26-.06.15-.47-.11-.4l-25.11,6.58-2.4.63a2,2,0,0,1-.61.16,8.27,8.27,0,0,1-.42-1.61.21.21,0,0,0-.4.11Z"/><path d="M218.31,265.31a4.44,4.44,0,0,1-1.3,1.49,2.32,2.32,0,0,0-.71.57,1.49,1.49,0,0,0,0,1.08c.06.27.46.15.41-.11a4.82,4.82,0,0,1-.11-.52.37.37,0,0,1,.14-.35c.11-.09.24-.16.35-.24a3.37,3.37,0,0,0,.38-.28,4.89,4.89,0,0,0,1.18-1.42c.13-.24-.24-.46-.37-.22Z"/><path d="M215.64,260.17a3.16,3.16,0,0,1,2.53,1.38,3.51,3.51,0,0,1,.37,3.28c-.1.25.31.36.4.11a3.86,3.86,0,0,0-.45-3.66,3.58,3.58,0,0,0-2.85-1.53c-.27,0-.28.43,0,.42Z"/><path d="M243.49,247.59l-25,6.75-3.51.94a.21.21,0,0,0,.11.41l25-6.75,3.51-.94a.21.21,0,0,0-.11-.41Z"/><path d="M244.33,247.8l.62-.16-.27-.21a16.21,16.21,0,0,0,1.12,4l.15-.26c-2.1.61-4.17,2.9-3.28,5.21a3.81,3.81,0,0,0,1.74,1.95,5,5,0,0,0,2,.57c.21,0,.43,0,.64,0a2.47,2.47,0,0,0,.47,0s.37-.1.27-.11c.19,0-.08-.14.05,0a.74.74,0,0,1,.08.3l1,3.43.15-.26-3.06.79c-.26.06-.15.47.12.4l3.05-.78a.22.22,0,0,0,.15-.26l-1.06-3.82a.21.21,0,0,0-.2-.16c-1.89.22-4.32-.21-5-2.3s1.18-4,3-4.56a.21.21,0,0,0,.15-.25,15.38,15.38,0,0,1-1.11-3.92.21.21,0,0,0-.26-.2l-.62.17a.21.21,0,0,0,.11.4Z"/><circle class="cls-27" cx="121.18" cy="64.39" r="7.82"/><polygon class="cls-24" points="121.52 59.8 122.83 62.47 125.78 62.89 123.65 64.97 124.15 67.9 121.52 66.52 118.89 67.9 119.39 64.97 117.26 62.89 120.2 62.47 121.52 59.8"/><path d="M115.87,69.87c-2.11-2.26-3.29-5.71-1.77-8.59a8.3,8.3,0,0,1,5.52-4.38,9,9,0,0,1,5.69,1c.18.09.34-.19.16-.27-3-1.46-6.35-1.65-9.07.44a8.05,8.05,0,0,0-3.32,5.52,9.13,9.13,0,0,0,2.57,6.53c.14.15.36-.08.22-.23Z"/><path d="M120.66,72.15c4.52,1,8.37-3.68,8.47-7.88a6.32,6.32,0,0,0-.93-3.5c-.11-.17-.38,0-.27.16,2.83,4.54-1.68,12.11-7.19,10.92-.2,0-.28.26-.08.3Z"/><path class="cls-17" d="M78.39,158.35l-5-3.83H44.82a3.07,3.07,0,0,1-3.07-3.07V136.38a3.07,3.07,0,0,1,3.07-3.07h30.5a3.07,3.07,0,0,1,3.07,3.07Z"/><path d="M41.5,146.64c0,1.51,0,3,0,4.54a3.07,3.07,0,0,0,.76,2.29,4,4,0,0,0,2.29,1.07,7,7,0,0,0,1.65.08c.22,0,.22-.36,0-.34a4.93,4.93,0,0,1-3.51-.87,2.67,2.67,0,0,1-.85-2.23c0-.77,0-1.54,0-2.31v-2.23a.17.17,0,0,0-.34,0Z"/><path d="M48.83,154.66H61.39a.17.17,0,0,0,0-.34H48.83a.17.17,0,0,0,0,.34Z"/><path d="M42,143.27v-4.53a.17.17,0,0,0-.34,0v4.53a.17.17,0,0,0,.34,0Z"/><path d="M42.12,136.43c0-2.61,2.71-3.05,4.8-3h20a.18.18,0,0,0,0-.35c-6.71,0-13.43.13-20.13,0a7,7,0,0,0-2.9.48,2.81,2.81,0,0,0-2.06,2.89c0,.22.34.22.34,0Z"/><path d="M68.21,154.53h4.54a2.8,2.8,0,0,1,.7,0c.17.06.35.29.49.41l.92.74,3.41,2.81c.17.14.41-.1.24-.24L75,155.31l-.91-.75a2,2,0,0,0-.38-.32,2.3,2.3,0,0,0-.91-.05H68.21a.17.17,0,0,0,0,.34Z"/><path d="M71.41,133.49h3.76a5,5,0,0,1,1.1,0,2.28,2.28,0,0,1,1.39,1.31,11,11,0,0,1,.68,4.89v17.58a.17.17,0,0,0,.34,0V146.41c0-2.42,0-4.84,0-7.26,0-1.75,0-4.26-1.47-5.52a2.06,2.06,0,0,0-1-.47,30.08,30.08,0,0,0-4.84,0,.17.17,0,0,0,0,.34Z"/><line class="cls-73" x1="48.62" y1="137.81" x2="72.81" y2="137.81"/><line class="cls-73" x1="48.62" y1="141.36" x2="72.81" y2="141.36"/><line class="cls-73" x1="48.62" y1="144.39" x2="72.81" y2="144.39"/><line class="cls-73" x1="48.62" y1="147.25" x2="72.81" y2="147.25"/><line class="cls-73" x1="48.62" y1="150.47" x2="72.81" y2="150.47"/><path class="cls-17" d="M236.1,101l4.07-3.1h23.11a2.48,2.48,0,0,0,2.48-2.49V83.17a2.48,2.48,0,0,0-2.48-2.49H238.59a2.49,2.49,0,0,0-2.49,2.49Z"/><path d="M262.16,97.93a4.29,4.29,0,0,0,3-.75,2.41,2.41,0,0,0,.81-2c0-.59,0-1.18,0-1.77v-2a.14.14,0,0,0-.28,0V95a2.39,2.39,0,0,1-.5,1.75,3,3,0,0,1-1.79.83,5.14,5.14,0,0,1-1.24.05c-.17,0-.17.26,0,.28Z"/><path d="M260,97.68H249.87a.14.14,0,0,0,0,.28H260a.14.14,0,0,0,0-.28Z"/><path d="M265.82,88.74V85.07a.14.14,0,0,0-.27,0v3.67a.14.14,0,1,0,.27,0Z"/><path d="M265.74,83.21c-.05-3.16-3.89-2.73-6.12-2.73H245.43a.14.14,0,0,0,0,.28h16c1.74,0,4,.2,4.07,2.45,0,.17.28.18.28,0Z"/><path d="M244.34,97.58h-3.67a1.66,1.66,0,0,0-.74,0,7,7,0,0,0-1,.85L236,100.85c-.14.12.06.31.19.2L239,98.78l.73-.61c.12-.09.27-.28.41-.33a2.73,2.73,0,0,1,.56,0h3.67a.14.14,0,0,0,0-.28Z"/><path d="M241.75,80.55a32.8,32.8,0,0,0-3.84,0,1.64,1.64,0,0,0-.64.23c-1.15.73-1.33,2.49-1.39,3.71-.19,4,0,8.11,0,12.14v3.46a.14.14,0,0,0,.27,0V85.86a8.88,8.88,0,0,1,.56-4,1.81,1.81,0,0,1,1.12-1.06,4.4,4.4,0,0,1,.89,0h3a.14.14,0,0,0,0-.28Z"/><line class="cls-74" x1="260.2" y1="84.32" x2="240.62" y2="84.32"/><line class="cls-74" x1="260.2" y1="87.19" x2="240.62" y2="87.19"/><line class="cls-74" x1="260.2" y1="89.65" x2="240.62" y2="89.65"/><line class="cls-74" x1="260.2" y1="91.96" x2="240.62" y2="91.96"/><line class="cls-74" x1="260.2" y1="94.57" x2="240.62" y2="94.57"/><path class="cls-27" d="M52.35,179.23l.15,9a1.38,1.38,0,0,0,1.43,1.35l17.49-.71a1.37,1.37,0,0,0,1.32-1.37v-8.84a1.37,1.37,0,0,0-1.41-1.37l-17.64.55A1.38,1.38,0,0,0,52.35,179.23Z"/><path d="M62.9,184.33l3.38-.26L70,185.22s-2.44-3.93-4.64-2.56A19.36,19.36,0,0,0,62.9,184.33Z"/><path d="M54.48,180a44.43,44.43,0,0,0,4.17,3c.74.48,1.49.93,2.26,1.36.61.34,1.12.64,1.81.33a17.1,17.1,0,0,0,2-1.18c.7-.44,1.4-.88,2.08-1.35A34.77,34.77,0,0,0,70.88,179c.24-.22-.11-.57-.35-.36a46.66,46.66,0,0,1-7.4,5.31c-.36.22-.72.53-1.18.44a4.5,4.5,0,0,1-1.17-.61c-.68-.39-1.34-.8-2-1.22a44.37,44.37,0,0,1-4-2.89c-.24-.2-.6.15-.35.36Z"/><path d="M55.52,186.42a32.34,32.34,0,0,1,3.94-2.85.25.25,0,0,0-.26-.43,33.75,33.75,0,0,0-4,2.93c-.24.2.11.56.36.35Z"/><path d="M66.7,182.6c1.84,1.07,3.22,2.72,5,3.93.27.18.52-.25.26-.44-1.74-1.21-3.13-2.85-5-3.93a.25.25,0,0,0-.25.44Z"/><path class="cls-27" d="M282.61,124.36l.15,9a1.38,1.38,0,0,0,1.43,1.35l17.49-.71a1.38,1.38,0,0,0,1.32-1.37v-8.84a1.36,1.36,0,0,0-1.42-1.37l-17.63.55A1.38,1.38,0,0,0,282.61,124.36Z"/><path d="M293.16,129.46l3.38-.26,3.76,1.15s-2.44-3.93-4.64-2.56A19.36,19.36,0,0,0,293.16,129.46Z"/><path d="M284.74,125.1a42.8,42.8,0,0,0,4.17,3.05c.74.48,1.49.93,2.26,1.35.61.35,1.12.65,1.81.34a17.1,17.1,0,0,0,2-1.18c.7-.44,1.4-.89,2.08-1.35a34.77,34.77,0,0,0,4.11-3.23c.24-.22-.11-.58-.35-.36a46.6,46.6,0,0,1-7.4,5.3c-.36.23-.72.54-1.18.45a4.83,4.83,0,0,1-1.17-.61c-.68-.39-1.34-.8-2-1.22a46.45,46.45,0,0,1-4-2.89c-.24-.2-.6.15-.35.35Z"/><path d="M285.78,131.55a31.58,31.58,0,0,1,3.94-2.85.25.25,0,0,0-.26-.43,34,34,0,0,0-4,2.92c-.24.21.11.57.36.36Z"/><path d="M297,127.72c1.84,1.08,3.22,2.73,5,3.94.27.18.52-.25.26-.44-1.74-1.21-3.13-2.85-5-3.93a.25.25,0,0,0-.25.43Z"/><polygon class="cls-75" points="268.84 179.55 275.82 182.66 273.68 184.06 274.95 186.16 273.42 187.11 272.1 185.09 269.84 186.56 268.84 179.55"/><path class="cls-22" d="M272.56,186.09l.73,1.1a.16.16,0,0,0,.2.05l1.46-1a.14.14,0,0,0,.05-.2,13,13,0,0,0-1.4-2.05l0,.23,1.5-.91c.16-.09,0-.34-.15-.25l-1.5.91a.14.14,0,0,0,0,.22,12.36,12.36,0,0,1,1.36,2l.05-.2-1.45,1,.2,0-.74-1.1c-.1-.15-.35,0-.25.15Z"/><path class="cls-22" d="M271.89,185c-.68.43-1.33.92-2,1.39-.15.1,0,.36.15.25.66-.47,1.31-1,2-1.39.15-.1,0-.35-.15-.25Z"/><path class="cls-22" d="M275.66,182.5c-2.23-1.17-4.53-2.21-6.81-3.26a.14.14,0,0,0-.21.16c.41,2.21.61,4.45,1,6.67,0,.19.3.11.28-.08-.35-2.21-.54-4.46-1-6.66l-.22.16c2.29,1,4.58,2.09,6.81,3.26.16.09.31-.17.15-.25Z"/><path class="cls-42" d="M78,85.83a14.75,14.75,0,1,1,28.23,6l3,3.67-4.7-.75A14.74,14.74,0,0,1,78,85.83Z"/><g class="cls-76"><g class="cls-44"><path class="cls-77" d="M105.66,162.73c4.88.55,18.13,5.17,4.74,4.71s-29.91-.45-31.95-3,1.4-2.61,7.62-2.78S105.66,162.73,105.66,162.73Z"/><path class="cls-48" d="M105.86,158.32s3.48,5.77,5.16,6.75c0,0-3.92,1.48-6.55-.62a11.67,11.67,0,0,1-2-1.94L102,165l-1.75-.42,1.45-6.29Z"/><path class="cls-48" d="M84.05,155.19c.62,1.34,1.19,7.54,1.19,7.54s-4.53-2-4.95-5.16L79,159.63l-.9-.69,2-4.93Z"/><path class="cls-46" d="M90.36,76.5a4.42,4.42,0,0,0-2.18-.34,2.46,2.46,0,0,0-1.83,1.14,1.73,1.73,0,0,0,.22,2.06c.26.26.67.56.5.89a.62.62,0,0,1-.33.26A13,13,0,0,0,84,82a3.11,3.11,0,0,0-1.23,2.73,1.42,1.42,0,0,0,.73,1.1c.6.27,1.41-.05,1.89.4a.37.37,0,0,1,.12.22c0,.2-.18.35-.37.44a8.38,8.38,0,0,0-1.52.78,1.85,1.85,0,0,0-.86,1.41,1.76,1.76,0,0,0,1.28,1.59,4.06,4.06,0,0,0,2.16,0,8.87,8.87,0,0,0,2.41-.85,7.47,7.47,0,0,0,3.51-4.71,10.39,10.39,0,0,0-.36-5.94"/><path class="cls-78" d="M88.61,110.65c-.38.49-3.64,2.06-4.36,1.81s-2.29-1.24-1.09-2.07S88.61,110.65,88.61,110.65Z"/><path class="cls-78" d="M97.08,108.14c1.68,0,1.87-.17,2.11,1.79a26.14,26.14,0,0,1,.27,6.9c-.6,6-14.53,40.5-14.53,40.5l-6-2.54,7.44-21.32s2.24-17.66,2.43-18C89.25,114.7,92,108.17,97.08,108.14Z"/><path class="cls-48" d="M92.09,138,91,141.06s-4-10.22-3.3-14.59Z"/><path class="cls-48" d="M98.8,113.21s-2.66,1.33-2.71,2.87,0,6.88,0,6.88-4-10.1-3.66-11S98.8,113.21,98.8,113.21Z"/><path class="cls-46" d="M106.89,158.23c0-.58-12.73-44.32-12.73-44.32S93.57,108.43,92,108s-6.13-.32-6.87,1.52c-3,7.37,1.71,15.92,6.94,28.44,4.63,11.09,8.69,22,8.69,22Z"/><path class="cls-78" d="M92.71,83.78c-2.59,1.36-1.67,6.28.39,7.73s5.69,2.23,6-.52S96.52,81.8,92.71,83.78Z"/><path class="cls-47" d="M95.65,90.2c2.23.71,3.91,7.33,7.08,13.23a56.82,56.82,0,0,0,7.52,10.38l-2.71.44s-5.6-6.17-7.8-9.38a51.08,51.08,0,0,1-3.67-6.71S93.66,89.55,95.65,90.2Z"/><path class="cls-46" d="M99,94.89c.07-1.79-.46-4.5-3.48-4.88Z"/><path class="cls-45" d="M95.5,90c1.94,1.76,4.29,5.68,5.2,7.26a1.18,1.18,0,0,1-.09,1.31l-1.76,2.23-1,4.55,1.81,4.71-13-.53s3.29-3.23,1-9.92c-1.47-4.2-4-5.67-3.23-8.45.37-1.33,3.15-2.71,4.77-2.9A10.78,10.78,0,0,1,95.5,90Z"/><path class="cls-47" d="M84.32,90.34C82.51,92,79.23,100.52,78.67,105a59.44,59.44,0,0,0,0,10.52l-.25,1.29,0,1.67a4.52,4.52,0,0,0-.73,2.14c0,.15,1.2-.82,1.18-.67-.06.79-1.1,1.28-1.07,1.36a1.73,1.73,0,0,0,.66.86c.4.29,1.46-.26,1.91-1.07a12.11,12.11,0,0,0,.83-3.72l-.35-2.52a65.8,65.8,0,0,1,1.25-8.81c.68-2.89,3.7-8.31,3.7-8.31s2.68-3,.88-6C85.21,89.14,84.32,90.34,84.32,90.34Z"/><path class="cls-45" d="M86.77,89.83c1,.75,1.62,3.08.81,5.73S86,98.19,86,98.19s-3.48-3.59-3.82-4.14S84.51,88.23,86.77,89.83Z"/><path class="cls-47" d="M89.26,89.16l.52-1.59a3.62,3.62,0,0,1-2.08-2.19c-.45-1.2-.51-6,2.25-8.11a3.92,3.92,0,0,1,6.34,2C96.7,81.54,94.52,85,94.52,85L93.36,88.7,89.9,89.84A.53.53,0,0,1,89.26,89.16Z"/><path class="cls-47" d="M89.06,87.92s.92,2.37,6.43,5a.34.34,0,0,0,.46-.44,14.53,14.53,0,0,0-2.63-4.09Z"/><path class="cls-48" d="M87.45,96.7c.65-1.46,1.51-3.15,1-4.79a.09.09,0,0,0-.17,0c.48,1.58-.37,3.23-1,4.65,0,.11.1.2.15.09Z"/><path class="cls-48" d="M88.17,91a4.55,4.55,0,0,0-2.1-1.6c-.11,0-.15.13,0,.17a4.23,4.23,0,0,1,2,1.52c.07.09.22,0,.16-.09Z"/><path class="cls-48" d="M99.32,98.14a9.36,9.36,0,0,0-4.64-.2.09.09,0,1,0,0,.17,9.08,9.08,0,0,1,4.54.2.09.09,0,0,0,0-.17Z"/><path class="cls-48" d="M95,99.73a11.43,11.43,0,0,0-2.48-.28.09.09,0,0,0,0,.18A11.13,11.13,0,0,1,95,99.9c.11,0,.15-.15,0-.17Z"/><path class="cls-47" d="M110.32,113.37c.87.3,3.73,1.83,3.73,1.83.66,1.32-1.11.9-2.61.51a11.75,11.75,0,0,1-3.83-1.89C107.41,113.48,109.33,113,110.32,113.37Z"/><path class="cls-47" d="M81,117.23c.4.47.7,3.18.1,3.15s-.89-3.12-.89-3.12Z"/><path class="cls-48" d="M102.13,157.5c-2.76-7.33-5.65-14.61-8.58-21.87-1.77-4.39-3.68-8.75-5.27-13.21A29.94,29.94,0,0,1,87,111.65a.09.09,0,0,0-.18,0A32.36,32.36,0,0,0,87.94,122c.45,1.45,1.08,2.87,1.64,4.28,2.42,6.06,4.89,12.1,7.3,18.17Q99.48,151,102,157.55c0,.11.21.06.17-.05Z"/><path class="cls-48" d="M89.14,111.9a7.13,7.13,0,0,1-.28,3,2.35,2.35,0,0,1-1.59,1.71.09.09,0,1,0,0,.17A2.45,2.45,0,0,0,89,115.15a6.89,6.89,0,0,0,.36-3.25c0-.11-.19-.11-.18,0Z"/><path class="cls-47" d="M107.61,113.82c-.54.75,1.64,2.75,2.85,3s-.53-1.77-1.22-2.67C108.79,113.56,107.61,113.82,107.61,113.82Z"/><path class="cls-48" d="M81.61,104.77l-.76-.48c-.1-.06-.19.1-.09.16l.76.47a.09.09,0,1,0,.09-.15Z"/><path class="cls-48" d="M81.06,118.11l-.42,1.46c0,.11.13.16.17.05l.43-1.46a.09.09,0,0,0-.18,0Z"/><path class="cls-48" d="M79.21,119.43a3.91,3.91,0,0,1-1.22,1l.11,0a.29.29,0,0,1-.07-.23.09.09,0,1,0-.18,0,.5.5,0,0,0,.12.35.09.09,0,0,0,.11,0,4.22,4.22,0,0,0,1.28-1.06c.07-.09-.08-.18-.15-.09Z"/><path class="cls-48" d="M78.22,122a2.07,2.07,0,0,0,1.64-1.08,4,4,0,0,0,.3-.92c0-.33.06-.67.1-1,0-.11-.17-.11-.18,0,0,.32,0,.64-.09,1a3.49,3.49,0,0,1-.26.85,1.54,1.54,0,0,1-.63.73,2.91,2.91,0,0,1-.93.31.09.09,0,0,0,0,.17Z"/><path class="cls-48" d="M114.09,115.54a5.52,5.52,0,0,0-1.5-.5,6.84,6.84,0,0,1-1.54-.63.09.09,0,0,0-.09.16,7.33,7.33,0,0,0,1.48.61c.26.07.53.11.79.19a3.51,3.51,0,0,1,.77.33.09.09,0,0,0,.09-.16Z"/><path class="cls-48" d="M112.07,114.25a9,9,0,0,0-1.22-.57c-.11,0-.15.13,0,.17a8.44,8.44,0,0,1,1.18.55c.1,0,.19-.1.09-.15Z"/><path class="cls-48" d="M101.77,104.67a.82.82,0,0,0-.77.25.09.09,0,0,0,0,.13.09.09,0,0,0,.12,0,.67.67,0,0,1,.28-.19.74.74,0,0,1,.33,0,.1.1,0,0,0,.11-.06.1.1,0,0,0-.07-.11Z"/><path class="cls-45" d="M88.1,101.55c-.35,3.21-.22,1.77-3.3,5.85-1.33,1.76-2.69,4-1.31,3.45,1.9-.77,13.11,2.08,14,2.18,3.59.36,2.3-2.18,2.11-3a28.69,28.69,0,0,0-2.6-4Z"/><path class="cls-46" d="M91.61,75.35a6.48,6.48,0,0,1,4.56,1.29c2.39,1.82,1.59,3.32,2,4.28.67,1.37,2.52-.34,3.72,2.85.16.43,1.6.48,1.5.92a8.54,8.54,0,0,1-3.16,4.49,5,5,0,0,1-1.91,1,2.25,2.25,0,0,1-2.05-.45c-.91-.87-.61-2.36-.34-3.6a1,1,0,0,0,0-.54c-.13-.4-.66-.49-1.07-.41a3,3,0,0,1-1.24.17,1.24,1.24,0,0,1-.81-1.31,3,3,0,0,1,.66-1.5,1.65,1.65,0,0,0,.43-1c0-.59-.71-1-1.29-.88s-1,.6-1.61.68a2.44,2.44,0,0,1-3-2.76A5,5,0,0,1,91.61,75.35Z"/><path class="cls-48" d="M98.34,93.52a18.43,18.43,0,0,0-2.6-3.6c-.07-.09-.2,0-.12.12a17.64,17.64,0,0,1,2.56,3.57.09.09,0,0,0,.16-.09Z"/></g></g><path class="cls-79" d="M287.17,152.73c-2.88-3.74-7.71-5.21-11.41-2.19s-3.77,8-.75,11.64,8,4.74,11.68,1.73S290.08,156.51,287.17,152.73Zm-.54,9.77c-2.78,2.69-7.41,1.1-9.85-1.89s-2.52-6.84.47-9.28S284,150,286.48,153,289.35,159.88,286.63,162.5Z"/><path class="cls-80" d="M286.67,162.48c2.7-2.63,2.26-6.5-.17-9.51s-6.2-4.16-9.17-1.71c0,0,5.41-2.5,8.81,2.64C289.72,159.33,286.67,162.48,286.67,162.48Z"/><path class="cls-80" d="M276.26,161.69c4.68,6.1,10.43,2.22,10.43,2.22-3.69,3-8.67,2-11.68-1.73s-2.94-8.62.75-11.64l.47-.2s-5.46,3.76-.67,10.52Z"/><path class="cls-79" d="M294.44,173.36h0a1.47,1.47,0,0,1-2.05-.21l-7.05-8.83c-.51-.62.53-.45,1.16-1l.27-.36c.62-.51.32-1.14.82-.52l7.06,8.83A1.47,1.47,0,0,1,294.44,173.36Z"/><path class="cls-80" d="M285.54,164.57l6.85,8.58a1.47,1.47,0,0,0,2.05.21s-.6.43-1.29-.51-6.52-8.16-6.52-8.16-.18-.58-.56-.38h0Z"/><path class="cls-81" d="M277.23,151.29c-3,2.46-2.93,6.33-.47,9.34s6.66,4.52,9.67,2.06,2.55-6.69.09-9.7S280.24,148.83,277.23,151.29Z"/><path d="M287.63,161.34a5.93,5.93,0,0,0,.78-5.21,8.77,8.77,0,0,0-3.9-5,.07.07,0,1,0-.07.13,8.63,8.63,0,0,1,3.78,4.79c.49,1.64.47,3.85-.7,5.22-.06.07.05.18.11.1Z"/><path class="cls-41" d="M280.81,153.06a3.81,3.81,0,0,1,2.84,1.78,7.09,7.09,0,0,1,1,4,.64.64,0,0,0,1.27,0,8,8,0,0,0-1.24-4.81,5.14,5.14,0,0,0-3.83-2.26c-.82,0-.81,1.23,0,1.28Z"/><path d="M285.9,164.57a3.12,3.12,0,0,0,1-.75.07.07,0,0,0-.11-.1,2.94,2.94,0,0,1-.92.72c-.09,0,0,.17.08.13Z"/><path d="M292.61,172.26c.26.31.52.63.77,1a.78.78,0,0,0,.26.25.52.52,0,0,0,.5,0c.09,0,0-.17-.07-.13a.4.4,0,0,1-.42,0,3.36,3.36,0,0,1-.24-.29c-.22-.29-.46-.58-.69-.86-.07-.07-.17,0-.11.11Z"/><path d="M288.37,166.9c1.08,1.33,2.11,2.7,3.17,4,.19.24.37.48.57.71.06.08.16,0,.1-.1-1.09-1.32-2.12-2.69-3.17-4-.19-.24-.37-.48-.57-.71-.06-.07-.16,0-.1.1Z"/><path d="M286.37,164.39c.5.69,1,1.34,1.58,2,.06.08.16,0,.1-.1-.53-.65-1.06-1.3-1.55-2-.05-.07-.18,0-.13.08Z"/><path d="M273.66,156.51a5.31,5.31,0,0,1,.16-2.06.08.08,0,0,0-.15,0,5.7,5.7,0,0,0-.16,2.1c0,.09.16.09.15,0Z"/><path d="M274,153.57a5.92,5.92,0,0,1,3-3.63c.09-.05,0-.17-.07-.13a6,6,0,0,0-3.08,3.72c0,.09.12.13.14,0Z"/><path d="M274.75,159.53A8.84,8.84,0,0,0,278.8,164a7.28,7.28,0,0,0,5.57,1,.07.07,0,1,0,0-.14,7.07,7.07,0,0,1-5.45-1,8.71,8.71,0,0,1-4-4.37c0-.09-.18-.05-.14,0Z"/><path d="M283,149.57a2.9,2.9,0,0,1,.65.28,10.37,10.37,0,0,1,1.21.78,11.93,11.93,0,0,1,3,3.26c.05.08.18,0,.12-.08a12,12,0,0,0-3-3.28,10.31,10.31,0,0,0-1.26-.8,2.79,2.79,0,0,0-.68-.31.08.08,0,0,0,0,.15Z"/><path d="M287.9,162.84a.07.07,0,1,0,0-.14.07.07,0,0,0,0,.14Z"/><path d="M288,162.73A7.49,7.49,0,0,0,289.4,160a7.72,7.72,0,0,0-.48-4.45c0-.09-.18-.05-.14,0a7.5,7.5,0,0,1,.45,4.46,7.23,7.23,0,0,1-1.33,2.62c-.06.08.07.15.13.08Z"/><path d="M275.61,162.67a18.73,18.73,0,0,1-1.48-1.94A8.63,8.63,0,0,1,273,156c0-.09-.14-.09-.15,0a8.7,8.7,0,0,0,1.12,4.68,9.69,9.69,0,0,0,.94,1.36c.19.24.42.46.61.7.06.08.18,0,.13-.07Z"/><path d="M273.08,155.25a9.14,9.14,0,0,1,.45-1.46,9.73,9.73,0,0,1,.6-1.31.08.08,0,0,0-.13-.08,10.47,10.47,0,0,0-.6,1.32,9.52,9.52,0,0,0-.46,1.49c0,.09.12.13.14,0Z"/><path d="M276.62,163.88a7.73,7.73,0,0,0,7.05,1.66c.09,0,.05-.17,0-.14a7.59,7.59,0,0,1-6.9-1.62c-.07-.06-.18,0-.11.1Z"/><path d="M276,163.3l.19.15a.06.06,0,0,0,.1,0,.08.08,0,0,0,0,0s0,0,0-.05l-.18-.16-.05,0-.06,0a.08.08,0,0,0,0,.05.14.14,0,0,0,0,.06Z"/><rect class="cls-17" x="0.31" y="208.95" width="44.67" height="10.4" rx="5.2"/><text class="cls-82" transform="translate(5.35 216.11)">#business</text><path d="M5.41,219.11a5.34,5.34,0,0,1-4.52-2.46,4.53,4.53,0,0,1-.52-3.06,3.89,3.89,0,0,1,.8-1.69c.2-.27.41-.52.62-.78s.42-.61.8-.68c.18,0,.1-.3-.08-.27-.62.1-1,.87-1.38,1.32a5.05,5.05,0,0,0-1,1.68,4.82,4.82,0,0,0,.33,3.34,5.58,5.58,0,0,0,4.92,2.89.15.15,0,0,0,0-.29Z"/><path d="M4.35,209.46a10.54,10.54,0,0,1,3.36-.2c.18,0,.18-.26,0-.28a10.4,10.4,0,0,0-3.43.21.14.14,0,0,0,.07.27Z"/><path d="M9.88,209.36c3.61.18,7.27,0,10.89,0l16.73,0c1.43,0,2.88-.05,4.31,0,.19,0,.19-.28,0-.29-3.61-.18-7.27,0-10.89,0l-16.73,0c-1.43,0-2.88.05-4.31,0-.19,0-.19.27,0,.28Z"/><path d="M37.86,219.44a14.05,14.05,0,0,0,4.47-.68,3.57,3.57,0,0,0,2.26-2.61c0-.18-.25-.26-.28-.08A3.39,3.39,0,0,1,42,218.58a15.06,15.06,0,0,1-4.18.57c-.18,0-.18.3,0,.29Z"/><path d="M45.22,214.25a5.46,5.46,0,0,0-1.31-3.73c-.12-.14-.32.06-.2.2a5.18,5.18,0,0,1,1.22,3.53c0,.18.28.18.29,0Z"/><path d="M35.59,219H7.71a.14.14,0,0,0,0,.28H35.59a.14.14,0,0,0,0-.28Z"/></g></g></g></svg>