<svg xmlns="http://www.w3.org/2000/svg" viewBox="0 0 1790.24 543.92"><defs><style>.cls-1{fill:#f29100;}.cls-2{fill:#445880;}</style></defs><g id="Layer_2" data-name="Layer 2"><g id="Layer_1-2" data-name="Layer 1"><path class="cls-1" d="M620.36,451.62a38.71,38.71,0,0,0,3-2.59Z"/><path class="cls-1" d="M623.34,449l1.45-1.25C624.15,448.32,623.7,448.7,623.34,449Z"/><path class="cls-1" d="M176.35,435.35q-10,16.56-29.6,26.42t-47.39,9.87q-41.94,0-69.06-20.44T.7,394.12H64.83q1.41,14.1,10,22.2t22,8.1q11.64,0,18.33-6.34t6.69-16.91a21.89,21.89,0,0,0-6.16-15.86,48.49,48.49,0,0,0-15.33-10.39q-9.17-4.05-25.37-9.69-23.61-8.1-38.58-15.68A70.9,70.9,0,0,1,10.75,327Q0,312,0,288.06q0-22.18,11.27-38.4t31.19-24.84q19.9-8.62,45.63-8.63,41.57,0,66.06,19.73t27.66,54.26H116.63q-1.77-12.33-9-19.56T88.09,263.4Q77.52,263.4,71,269T64.48,285.6a21,21,0,0,0,5.81,15,44.11,44.11,0,0,0,14.63,10q8.79,3.88,25.36,9.87,24,8.11,39.11,16a75,75,0,0,1,26.08,23.08q10.92,15.15,10.92,39.46A68.73,68.73,0,0,1,176.35,435.35Z"/><path class="cls-1" d="M374.54,220.06V316.6H280.12V220.06H219.87V469.17h60.25V365.23h94.42V469.17h18L424,220.06Z"/><path class="cls-1" d="M663.93,232.57A119.3,119.3,0,0,1,709.21,278q16.56,29.07,16.56,65.72T709,409.62a120.2,120.2,0,0,1-45.45,45.63q-28.73,16.38-63.6,16.39t-63.59-16.39a120.23,120.23,0,0,1-45.46-45.63q-16.74-29.24-16.73-65.88T490.93,278a120.6,120.6,0,0,1,45.46-45.45Q565.1,216.19,600,216.19,635.22,216.19,663.93,232.57ZM553,291.41q-17.44,19.21-17.45,52.33,0,32.76,17.45,52.14t47,19.38q29.25,0,46.87-19.38t17.61-52.14q0-32.78-17.44-52.15t-47-19.38Q570.39,272.21,553,291.41Z"/><path class="cls-1" d="M815,381.79v87.38H754.71V220.06h97.6q44.4,0,67.65,22t23.26,59.37q0,23.26-10.4,41.4T902,371.39q-20.43,10.41-49.68,10.4Zm66.95-80.34q0-32.76-36.29-32.76H815v64.83h30.66Q881.91,333.52,881.91,301.45Z"/><path class="cls-1" d="M1033.06,381.79v87.38H972.81V220.06h97.6q44.4,0,67.65,22t23.25,59.37q0,23.26-10.39,41.4t-30.83,28.54q-20.44,10.41-49.68,10.4Zm67-80.34q0-32.76-36.29-32.76h-30.66v64.83h30.66Q1100,333.52,1100,301.45Z"/><path class="cls-1" d="M1251.16,220.06V469.17h-60.25V220.06Z"/><path class="cls-1" d="M1514,469.17h-60.25L1353,316.25V469.17h-60.25V220.06H1353l100.77,154.33V220.06H1514Z"/><path class="cls-1" d="M1749.36,240.5q30.3,22.91,37.7,62h-63.77a49.26,49.26,0,0,0-19.38-21.32q-13-7.92-31.36-7.92-28.53,0-45.8,19.2t-17.27,52q0,35.6,18.15,54.61t51.62,19q21.48,0,37.7-11.8t22.9-33.65h-76.11V329.29h126.5v59.55a121.68,121.68,0,0,1-22.55,40.51q-15.51,18.69-39.64,30.31t-55.15,11.62q-37.7,0-65.88-16a109.75,109.75,0,0,1-43.52-44.92q-15.33-28.89-15.33-65.89t15.33-65.89a110.2,110.2,0,0,1,43.34-44.92q28-16,65.36-16Q1719.06,217.6,1749.36,240.5Z"/><path class="cls-2" d="M750.08,493.56c-100.66,50.69-205.65,34.66-311-39.65l33-259,1.7-15.06,274.9,2.29V157.19H722.18l.33-44.77A111.6,111.6,0,0,0,611.73,0h-.84A111.59,111.59,0,0,0,499.33,110.78L499,157.19H451.07l-4.25,37.69L412.54,465.61l5.84,4.3c67.09,49.42,104.67,74,184.07,74,65.67,0,100.21-16.84,147.63-50.36ZM531.65,111A79.26,79.26,0,0,1,610.9,32.33h.6a79.28,79.28,0,0,1,78.68,79.85l-.33,45H531.31Z"/></g></g></svg>